<?xml version="1.0" standalone="no"?>
 <!DOCTYPE svg PUBLIC "-//W3C//DTD SVG 1.1//EN" 
 "http://www.w3.org/Graphics/SVG/1.1/DTD/svg11.dtd"> 
<svg
  xmlns:svg="http://www.w3.org/2000/svg"
  xmlns="http://www.w3.org/2000/svg"
  xmlns:xlink="http://www.w3.org/1999/xlink"
  version="1.1"
  width="297.0022mm" height="210.0072mm" viewBox="0.0000 0.0000 297.0022 210.0072">
<title>SVG Image created as ampli_bootstrap.svg date 2024/09/29 23:04:26 </title>
  <desc>Image generated by Eeschema-SVG </desc>
<g style="fill:#000000; fill-opacity:1.0000;stroke:#000000; stroke-opacity:1.0000;
stroke-linecap:round; stroke-linejoin:round;"
 transform="translate(0 0) scale(1 1)">
</g>
<g style="fill:none; 
stroke:#840000; stroke-width:0.1524; stroke-opacity:1; 
stroke-linecap:round; stroke-linejoin:round;">
<path d="M177.0022 166.0072
L285.0022 166.0072
L285.0022 198.0072
L177.0022 198.0072
L177.0022 166.0072
" />
<path d="M10.0000 10.0000
L287.0022 10.0000
L287.0022 200.0072
L10.0000 200.0072
L10.0000 10.0000
" />
<path d="M12.0000 12.0000
L285.0022 12.0000
L285.0022 198.0072
L12.0000 198.0072
L12.0000 12.0000
" />
<path d="M60.0000 12.0000
L60.0000 10.0000
" />
<path d="M110.0000 12.0000
L110.0000 10.0000
" />
<path d="M160.0000 12.0000
L160.0000 10.0000
" />
<path d="M210.0000 12.0000
L210.0000 10.0000
" />
<path d="M260.0000 12.0000
L260.0000 10.0000
" />
<text x="35.0000" y="11.6500"
textLength="1.4353" font-size="1.7333" lengthAdjust="spacingAndGlyphs"
text-anchor="start" opacity="0" stroke-opacity="0">1</text>
<g class="stroked-text"><desc>1</desc>
<path d="M36.0906 11.5935
L35.3478 11.5935
" />
<path d="M35.7192 11.5935
L35.7192 10.2935
" />
<path d="M35.7192 10.2935
L35.5954 10.4792
" />
<path d="M35.5954 10.4792
L35.4716 10.6030
" />
<path d="M35.4716 10.6030
L35.3478 10.6649
" />
</g><text x="85.0000" y="11.6500"
textLength="1.4353" font-size="1.7333" lengthAdjust="spacingAndGlyphs"
text-anchor="start" opacity="0" stroke-opacity="0">2</text>
<g class="stroked-text"><desc>2</desc>
<path d="M85.3478 10.4173
L85.4097 10.3554
" />
<path d="M85.4097 10.3554
L85.5335 10.2935
" />
<path d="M85.5335 10.2935
L85.8430 10.2935
" />
<path d="M85.8430 10.2935
L85.9668 10.3554
" />
<path d="M85.9668 10.3554
L86.0287 10.4173
" />
<path d="M86.0287 10.4173
L86.0906 10.5411
" />
<path d="M86.0906 10.5411
L86.0906 10.6649
" />
<path d="M86.0906 10.6649
L86.0287 10.8506
" />
<path d="M86.0287 10.8506
L85.2859 11.5935
" />
<path d="M85.2859 11.5935
L86.0906 11.5935
" />
</g><text x="135.0000" y="11.6500"
textLength="1.4353" font-size="1.7333" lengthAdjust="spacingAndGlyphs"
text-anchor="start" opacity="0" stroke-opacity="0">3</text>
<g class="stroked-text"><desc>3</desc>
<path d="M135.2859 10.2935
L136.0906 10.2935
" />
<path d="M136.0906 10.2935
L135.6573 10.7887
" />
<path d="M135.6573 10.7887
L135.8430 10.7887
" />
<path d="M135.8430 10.7887
L135.9668 10.8506
" />
<path d="M135.9668 10.8506
L136.0287 10.9125
" />
<path d="M136.0287 10.9125
L136.0906 11.0363
" />
<path d="M136.0906 11.0363
L136.0906 11.3458
" />
<path d="M136.0906 11.3458
L136.0287 11.4696
" />
<path d="M136.0287 11.4696
L135.9668 11.5316
" />
<path d="M135.9668 11.5316
L135.8430 11.5935
" />
<path d="M135.8430 11.5935
L135.4716 11.5935
" />
<path d="M135.4716 11.5935
L135.3478 11.5316
" />
<path d="M135.3478 11.5316
L135.2859 11.4696
" />
</g><text x="185.0000" y="11.6500"
textLength="1.4353" font-size="1.7333" lengthAdjust="spacingAndGlyphs"
text-anchor="start" opacity="0" stroke-opacity="0">4</text>
<g class="stroked-text"><desc>4</desc>
<path d="M185.9668 10.7268
L185.9668 11.5935
" />
<path d="M185.6573 10.2316
L185.3478 11.1601
" />
<path d="M185.3478 11.1601
L186.1525 11.1601
" />
</g><text x="235.0000" y="11.6500"
textLength="1.4353" font-size="1.7333" lengthAdjust="spacingAndGlyphs"
text-anchor="start" opacity="0" stroke-opacity="0">5</text>
<g class="stroked-text"><desc>5</desc>
<path d="M236.0287 10.2935
L235.4097 10.2935
" />
<path d="M235.4097 10.2935
L235.3478 10.9125
" />
<path d="M235.3478 10.9125
L235.4097 10.8506
" />
<path d="M235.4097 10.8506
L235.5335 10.7887
" />
<path d="M235.5335 10.7887
L235.8430 10.7887
" />
<path d="M235.8430 10.7887
L235.9668 10.8506
" />
<path d="M235.9668 10.8506
L236.0287 10.9125
" />
<path d="M236.0287 10.9125
L236.0906 11.0363
" />
<path d="M236.0906 11.0363
L236.0906 11.3458
" />
<path d="M236.0906 11.3458
L236.0287 11.4696
" />
<path d="M236.0287 11.4696
L235.9668 11.5316
" />
<path d="M235.9668 11.5316
L235.8430 11.5935
" />
<path d="M235.8430 11.5935
L235.5335 11.5935
" />
<path d="M235.5335 11.5935
L235.4097 11.5316
" />
<path d="M235.4097 11.5316
L235.3478 11.4696
" />
</g><text x="285.0000" y="11.6500"
textLength="1.4353" font-size="1.7333" lengthAdjust="spacingAndGlyphs"
text-anchor="start" opacity="0" stroke-opacity="0">6</text>
<g class="stroked-text"><desc>6</desc>
<path d="M285.9668 10.2935
L285.7192 10.2935
" />
<path d="M285.7192 10.2935
L285.5954 10.3554
" />
<path d="M285.5954 10.3554
L285.5335 10.4173
" />
<path d="M285.5335 10.4173
L285.4097 10.6030
" />
<path d="M285.4097 10.6030
L285.3478 10.8506
" />
<path d="M285.3478 10.8506
L285.3478 11.3458
" />
<path d="M285.3478 11.3458
L285.4097 11.4696
" />
<path d="M285.4097 11.4696
L285.4716 11.5316
" />
<path d="M285.4716 11.5316
L285.5954 11.5935
" />
<path d="M285.5954 11.5935
L285.8430 11.5935
" />
<path d="M285.8430 11.5935
L285.9668 11.5316
" />
<path d="M285.9668 11.5316
L286.0287 11.4696
" />
<path d="M286.0287 11.4696
L286.0906 11.3458
" />
<path d="M286.0906 11.3458
L286.0906 11.0363
" />
<path d="M286.0906 11.0363
L286.0287 10.9125
" />
<path d="M286.0287 10.9125
L285.9668 10.8506
" />
<path d="M285.9668 10.8506
L285.8430 10.7887
" />
<path d="M285.8430 10.7887
L285.5954 10.7887
" />
<path d="M285.5954 10.7887
L285.4716 10.8506
" />
<path d="M285.4716 10.8506
L285.4097 10.9125
" />
<path d="M285.4097 10.9125
L285.3478 11.0363
" />
</g><path d="M60.0000 198.0072
L60.0000 200.0072
" />
<path d="M110.0000 198.0072
L110.0000 200.0072
" />
<path d="M160.0000 198.0072
L160.0000 200.0072
" />
<path d="M210.0000 198.0072
L210.0000 200.0072
" />
<path d="M260.0000 198.0072
L260.0000 200.0072
" />
<text x="35.0000" y="199.6572"
textLength="1.4353" font-size="1.7333" lengthAdjust="spacingAndGlyphs"
text-anchor="start" opacity="0" stroke-opacity="0">1</text>
<g class="stroked-text"><desc>1</desc>
<path d="M36.0906 199.6007
L35.3478 199.6007
" />
<path d="M35.7192 199.6007
L35.7192 198.3007
" />
<path d="M35.7192 198.3007
L35.5954 198.4864
" />
<path d="M35.5954 198.4864
L35.4716 198.6102
" />
<path d="M35.4716 198.6102
L35.3478 198.6721
" />
</g><text x="85.0000" y="199.6572"
textLength="1.4353" font-size="1.7333" lengthAdjust="spacingAndGlyphs"
text-anchor="start" opacity="0" stroke-opacity="0">2</text>
<g class="stroked-text"><desc>2</desc>
<path d="M85.3478 198.4245
L85.4097 198.3626
" />
<path d="M85.4097 198.3626
L85.5335 198.3007
" />
<path d="M85.5335 198.3007
L85.8430 198.3007
" />
<path d="M85.8430 198.3007
L85.9668 198.3626
" />
<path d="M85.9668 198.3626
L86.0287 198.4245
" />
<path d="M86.0287 198.4245
L86.0906 198.5483
" />
<path d="M86.0906 198.5483
L86.0906 198.6721
" />
<path d="M86.0906 198.6721
L86.0287 198.8578
" />
<path d="M86.0287 198.8578
L85.2859 199.6007
" />
<path d="M85.2859 199.6007
L86.0906 199.6007
" />
</g><text x="135.0000" y="199.6572"
textLength="1.4353" font-size="1.7333" lengthAdjust="spacingAndGlyphs"
text-anchor="start" opacity="0" stroke-opacity="0">3</text>
<g class="stroked-text"><desc>3</desc>
<path d="M135.2859 198.3007
L136.0906 198.3007
" />
<path d="M136.0906 198.3007
L135.6573 198.7959
" />
<path d="M135.6573 198.7959
L135.8430 198.7959
" />
<path d="M135.8430 198.7959
L135.9668 198.8578
" />
<path d="M135.9668 198.8578
L136.0287 198.9197
" />
<path d="M136.0287 198.9197
L136.0906 199.0435
" />
<path d="M136.0906 199.0435
L136.0906 199.3530
" />
<path d="M136.0906 199.3530
L136.0287 199.4768
" />
<path d="M136.0287 199.4768
L135.9668 199.5388
" />
<path d="M135.9668 199.5388
L135.8430 199.6007
" />
<path d="M135.8430 199.6007
L135.4716 199.6007
" />
<path d="M135.4716 199.6007
L135.3478 199.5388
" />
<path d="M135.3478 199.5388
L135.2859 199.4768
" />
</g><text x="185.0000" y="199.6572"
textLength="1.4353" font-size="1.7333" lengthAdjust="spacingAndGlyphs"
text-anchor="start" opacity="0" stroke-opacity="0">4</text>
<g class="stroked-text"><desc>4</desc>
<path d="M185.9668 198.7340
L185.9668 199.6007
" />
<path d="M185.6573 198.2388
L185.3478 199.1673
" />
<path d="M185.3478 199.1673
L186.1525 199.1673
" />
</g><text x="235.0000" y="199.6572"
textLength="1.4353" font-size="1.7333" lengthAdjust="spacingAndGlyphs"
text-anchor="start" opacity="0" stroke-opacity="0">5</text>
<g class="stroked-text"><desc>5</desc>
<path d="M236.0287 198.3007
L235.4097 198.3007
" />
<path d="M235.4097 198.3007
L235.3478 198.9197
" />
<path d="M235.3478 198.9197
L235.4097 198.8578
" />
<path d="M235.4097 198.8578
L235.5335 198.7959
" />
<path d="M235.5335 198.7959
L235.8430 198.7959
" />
<path d="M235.8430 198.7959
L235.9668 198.8578
" />
<path d="M235.9668 198.8578
L236.0287 198.9197
" />
<path d="M236.0287 198.9197
L236.0906 199.0435
" />
<path d="M236.0906 199.0435
L236.0906 199.3530
" />
<path d="M236.0906 199.3530
L236.0287 199.4768
" />
<path d="M236.0287 199.4768
L235.9668 199.5388
" />
<path d="M235.9668 199.5388
L235.8430 199.6007
" />
<path d="M235.8430 199.6007
L235.5335 199.6007
" />
<path d="M235.5335 199.6007
L235.4097 199.5388
" />
<path d="M235.4097 199.5388
L235.3478 199.4768
" />
</g><text x="285.0000" y="199.6572"
textLength="1.4353" font-size="1.7333" lengthAdjust="spacingAndGlyphs"
text-anchor="start" opacity="0" stroke-opacity="0">6</text>
<g class="stroked-text"><desc>6</desc>
<path d="M285.9668 198.3007
L285.7192 198.3007
" />
<path d="M285.7192 198.3007
L285.5954 198.3626
" />
<path d="M285.5954 198.3626
L285.5335 198.4245
" />
<path d="M285.5335 198.4245
L285.4097 198.6102
" />
<path d="M285.4097 198.6102
L285.3478 198.8578
" />
<path d="M285.3478 198.8578
L285.3478 199.3530
" />
<path d="M285.3478 199.3530
L285.4097 199.4768
" />
<path d="M285.4097 199.4768
L285.4716 199.5388
" />
<path d="M285.4716 199.5388
L285.5954 199.6007
" />
<path d="M285.5954 199.6007
L285.8430 199.6007
" />
<path d="M285.8430 199.6007
L285.9668 199.5388
" />
<path d="M285.9668 199.5388
L286.0287 199.4768
" />
<path d="M286.0287 199.4768
L286.0906 199.3530
" />
<path d="M286.0906 199.3530
L286.0906 199.0435
" />
<path d="M286.0906 199.0435
L286.0287 198.9197
" />
<path d="M286.0287 198.9197
L285.9668 198.8578
" />
<path d="M285.9668 198.8578
L285.8430 198.7959
" />
<path d="M285.8430 198.7959
L285.5954 198.7959
" />
<path d="M285.5954 198.7959
L285.4716 198.8578
" />
<path d="M285.4716 198.8578
L285.4097 198.9197
" />
<path d="M285.4097 198.9197
L285.3478 199.0435
" />
</g><path d="M10.0000 60.0000
L12.0000 60.0000
" />
<path d="M10.0000 110.0000
L12.0000 110.0000
" />
<path d="M10.0000 160.0000
L12.0000 160.0000
" />
<text x="11.0000" y="35.6500"
textLength="1.3115" font-size="1.7333" lengthAdjust="spacingAndGlyphs"
text-anchor="middle" opacity="0" stroke-opacity="0">A</text>
<g class="stroked-text"><desc>A</desc>
<path d="M10.6905 35.2220
L11.3095 35.2220
" />
<path d="M10.5667 35.5935
L11.0000 34.2935
" />
<path d="M11.0000 34.2935
L11.4333 35.5935
" />
</g><text x="11.0000" y="85.6500"
textLength="1.4972" font-size="1.7333" lengthAdjust="spacingAndGlyphs"
text-anchor="middle" opacity="0" stroke-opacity="0">B</text>
<g class="stroked-text"><desc>B</desc>
<path d="M11.0928 84.9125
L11.2785 84.9744
" />
<path d="M11.2785 84.9744
L11.3404 85.0363
" />
<path d="M11.3404 85.0363
L11.4023 85.1601
" />
<path d="M11.4023 85.1601
L11.4023 85.3458
" />
<path d="M11.4023 85.3458
L11.3404 85.4696
" />
<path d="M11.3404 85.4696
L11.2785 85.5316
" />
<path d="M11.2785 85.5316
L11.1547 85.5935
" />
<path d="M11.1547 85.5935
L10.6595 85.5935
" />
<path d="M10.6595 85.5935
L10.6595 84.2935
" />
<path d="M10.6595 84.2935
L11.0928 84.2935
" />
<path d="M11.0928 84.2935
L11.2166 84.3554
" />
<path d="M11.2166 84.3554
L11.2785 84.4173
" />
<path d="M11.2785 84.4173
L11.3404 84.5411
" />
<path d="M11.3404 84.5411
L11.3404 84.6649
" />
<path d="M11.3404 84.6649
L11.2785 84.7887
" />
<path d="M11.2785 84.7887
L11.2166 84.8506
" />
<path d="M11.2166 84.8506
L11.0928 84.9125
" />
<path d="M11.0928 84.9125
L10.6595 84.9125
" />
</g><text x="11.0000" y="135.6500"
textLength="1.4972" font-size="1.7333" lengthAdjust="spacingAndGlyphs"
text-anchor="middle" opacity="0" stroke-opacity="0">C</text>
<g class="stroked-text"><desc>C</desc>
<path d="M11.4023 135.4696
L11.3404 135.5316
" />
<path d="M11.3404 135.5316
L11.1547 135.5935
" />
<path d="M11.1547 135.5935
L11.0309 135.5935
" />
<path d="M11.0309 135.5935
L10.8452 135.5316
" />
<path d="M10.8452 135.5316
L10.7214 135.4077
" />
<path d="M10.7214 135.4077
L10.6595 135.2839
" />
<path d="M10.6595 135.2839
L10.5976 135.0363
" />
<path d="M10.5976 135.0363
L10.5976 134.8506
" />
<path d="M10.5976 134.8506
L10.6595 134.6030
" />
<path d="M10.6595 134.6030
L10.7214 134.4792
" />
<path d="M10.7214 134.4792
L10.8452 134.3554
" />
<path d="M10.8452 134.3554
L11.0309 134.2935
" />
<path d="M11.0309 134.2935
L11.1547 134.2935
" />
<path d="M11.1547 134.2935
L11.3404 134.3554
" />
<path d="M11.3404 134.3554
L11.4023 134.4173
" />
</g><text x="11.0000" y="185.6500"
textLength="1.4972" font-size="1.7333" lengthAdjust="spacingAndGlyphs"
text-anchor="middle" opacity="0" stroke-opacity="0">D</text>
<g class="stroked-text"><desc>D</desc>
<path d="M10.6595 185.5935
L10.6595 184.2935
" />
<path d="M10.6595 184.2935
L10.9690 184.2935
" />
<path d="M10.9690 184.2935
L11.1547 184.3554
" />
<path d="M11.1547 184.3554
L11.2785 184.4792
" />
<path d="M11.2785 184.4792
L11.3404 184.6030
" />
<path d="M11.3404 184.6030
L11.4023 184.8506
" />
<path d="M11.4023 184.8506
L11.4023 185.0363
" />
<path d="M11.4023 185.0363
L11.3404 185.2839
" />
<path d="M11.3404 185.2839
L11.2785 185.4077
" />
<path d="M11.2785 185.4077
L11.1547 185.5316
" />
<path d="M11.1547 185.5316
L10.9690 185.5935
" />
<path d="M10.9690 185.5935
L10.6595 185.5935
" />
</g><path d="M287.0022 60.0000
L285.0022 60.0000
" />
<path d="M287.0022 110.0000
L285.0022 110.0000
" />
<path d="M287.0022 160.0000
L285.0022 160.0000
" />
<text x="286.0022" y="35.6500"
textLength="1.3115" font-size="1.7333" lengthAdjust="spacingAndGlyphs"
text-anchor="middle" opacity="0" stroke-opacity="0">A</text>
<g class="stroked-text"><desc>A</desc>
<path d="M285.6927 35.2220
L286.3117 35.2220
" />
<path d="M285.5689 35.5935
L286.0022 34.2935
" />
<path d="M286.0022 34.2935
L286.4355 35.5935
" />
</g><text x="286.0022" y="85.6500"
textLength="1.4972" font-size="1.7333" lengthAdjust="spacingAndGlyphs"
text-anchor="middle" opacity="0" stroke-opacity="0">B</text>
<g class="stroked-text"><desc>B</desc>
<path d="M286.0950 84.9125
L286.2807 84.9744
" />
<path d="M286.2807 84.9744
L286.3426 85.0363
" />
<path d="M286.3426 85.0363
L286.4045 85.1601
" />
<path d="M286.4045 85.1601
L286.4045 85.3458
" />
<path d="M286.4045 85.3458
L286.3426 85.4696
" />
<path d="M286.3426 85.4696
L286.2807 85.5316
" />
<path d="M286.2807 85.5316
L286.1569 85.5935
" />
<path d="M286.1569 85.5935
L285.6617 85.5935
" />
<path d="M285.6617 85.5935
L285.6617 84.2935
" />
<path d="M285.6617 84.2935
L286.0950 84.2935
" />
<path d="M286.0950 84.2935
L286.2188 84.3554
" />
<path d="M286.2188 84.3554
L286.2807 84.4173
" />
<path d="M286.2807 84.4173
L286.3426 84.5411
" />
<path d="M286.3426 84.5411
L286.3426 84.6649
" />
<path d="M286.3426 84.6649
L286.2807 84.7887
" />
<path d="M286.2807 84.7887
L286.2188 84.8506
" />
<path d="M286.2188 84.8506
L286.0950 84.9125
" />
<path d="M286.0950 84.9125
L285.6617 84.9125
" />
</g><text x="286.0022" y="135.6500"
textLength="1.4972" font-size="1.7333" lengthAdjust="spacingAndGlyphs"
text-anchor="middle" opacity="0" stroke-opacity="0">C</text>
<g class="stroked-text"><desc>C</desc>
<path d="M286.4045 135.4696
L286.3426 135.5316
" />
<path d="M286.3426 135.5316
L286.1569 135.5935
" />
<path d="M286.1569 135.5935
L286.0331 135.5935
" />
<path d="M286.0331 135.5935
L285.8474 135.5316
" />
<path d="M285.8474 135.5316
L285.7236 135.4077
" />
<path d="M285.7236 135.4077
L285.6617 135.2839
" />
<path d="M285.6617 135.2839
L285.5998 135.0363
" />
<path d="M285.5998 135.0363
L285.5998 134.8506
" />
<path d="M285.5998 134.8506
L285.6617 134.6030
" />
<path d="M285.6617 134.6030
L285.7236 134.4792
" />
<path d="M285.7236 134.4792
L285.8474 134.3554
" />
<path d="M285.8474 134.3554
L286.0331 134.2935
" />
<path d="M286.0331 134.2935
L286.1569 134.2935
" />
<path d="M286.1569 134.2935
L286.3426 134.3554
" />
<path d="M286.3426 134.3554
L286.4045 134.4173
" />
</g><text x="286.0022" y="185.6500"
textLength="1.4972" font-size="1.7333" lengthAdjust="spacingAndGlyphs"
text-anchor="middle" opacity="0" stroke-opacity="0">D</text>
<g class="stroked-text"><desc>D</desc>
<path d="M285.6617 185.5935
L285.6617 184.2935
" />
<path d="M285.6617 184.2935
L285.9712 184.2935
" />
<path d="M285.9712 184.2935
L286.1569 184.3554
" />
<path d="M286.1569 184.3554
L286.2807 184.4792
" />
<path d="M286.2807 184.4792
L286.3426 184.6030
" />
<path d="M286.3426 184.6030
L286.4045 184.8506
" />
<path d="M286.4045 184.8506
L286.4045 185.0363
" />
<path d="M286.4045 185.0363
L286.3426 185.2839
" />
<path d="M286.3426 185.2839
L286.2807 185.4077
" />
<path d="M286.2807 185.4077
L286.1569 185.5316
" />
<path d="M286.1569 185.5316
L285.9712 185.5935
" />
<path d="M285.9712 185.5935
L285.6617 185.5935
" />
</g><text x="200.0022" y="193.8572"
textLength="7.0143" font-size="2.0000" lengthAdjust="spacingAndGlyphs"
text-anchor="start" opacity="0" stroke-opacity="0">Date: </text>
<g class="stroked-text"><desc>Date: </desc>
<path d="M200.4595 193.7931
L200.4595 192.2931
" />
<path d="M200.4595 192.2931
L200.8166 192.2931
" />
<path d="M200.8166 192.2931
L201.0309 192.3645
" />
<path d="M201.0309 192.3645
L201.1738 192.5074
" />
<path d="M201.1738 192.5074
L201.2452 192.6502
" />
<path d="M201.2452 192.6502
L201.3166 192.9359
" />
<path d="M201.3166 192.9359
L201.3166 193.1502
" />
<path d="M201.3166 193.1502
L201.2452 193.4359
" />
<path d="M201.2452 193.4359
L201.1738 193.5788
" />
<path d="M201.1738 193.5788
L201.0309 193.7217
" />
<path d="M201.0309 193.7217
L200.8166 193.7931
" />
<path d="M200.8166 193.7931
L200.4595 193.7931
" />
<path d="M202.6024 193.7931
L202.6024 193.0074
" />
<path d="M202.6024 193.0074
L202.5309 192.8645
" />
<path d="M202.5309 192.8645
L202.3881 192.7931
" />
<path d="M202.3881 192.7931
L202.1024 192.7931
" />
<path d="M202.1024 192.7931
L201.9595 192.8645
" />
<path d="M202.6024 193.7217
L202.4595 193.7931
" />
<path d="M202.4595 193.7931
L202.1024 193.7931
" />
<path d="M202.1024 193.7931
L201.9595 193.7217
" />
<path d="M201.9595 193.7217
L201.8881 193.5788
" />
<path d="M201.8881 193.5788
L201.8881 193.4359
" />
<path d="M201.8881 193.4359
L201.9595 193.2931
" />
<path d="M201.9595 193.2931
L202.1024 193.2217
" />
<path d="M202.1024 193.2217
L202.4595 193.2217
" />
<path d="M202.4595 193.2217
L202.6024 193.1502
" />
<path d="M203.1023 192.7931
L203.6737 192.7931
" />
<path d="M203.3166 192.2931
L203.3166 193.5788
" />
<path d="M203.3166 193.5788
L203.3880 193.7217
" />
<path d="M203.3880 193.7217
L203.5309 193.7931
" />
<path d="M203.5309 193.7931
L203.6737 193.7931
" />
<path d="M204.7451 193.7217
L204.6023 193.7931
" />
<path d="M204.6023 193.7931
L204.3166 193.7931
" />
<path d="M204.3166 193.7931
L204.1737 193.7217
" />
<path d="M204.1737 193.7217
L204.1023 193.5788
" />
<path d="M204.1023 193.5788
L204.1023 193.0074
" />
<path d="M204.1023 193.0074
L204.1737 192.8645
" />
<path d="M204.1737 192.8645
L204.3166 192.7931
" />
<path d="M204.3166 192.7931
L204.6023 192.7931
" />
<path d="M204.6023 192.7931
L204.7451 192.8645
" />
<path d="M204.7451 192.8645
L204.8166 193.0074
" />
<path d="M204.8166 193.0074
L204.8166 193.1502
" />
<path d="M204.8166 193.1502
L204.1023 193.2931
" />
<path d="M205.4594 193.6502
L205.5308 193.7217
" />
<path d="M205.5308 193.7217
L205.4594 193.7931
" />
<path d="M205.4594 193.7931
L205.3880 193.7217
" />
<path d="M205.3880 193.7217
L205.4594 193.6502
" />
<path d="M205.4594 193.6502
L205.4594 193.7931
" />
<path d="M205.4594 192.8645
L205.5308 192.9359
" />
<path d="M205.5308 192.9359
L205.4594 193.0074
" />
<path d="M205.4594 193.0074
L205.3880 192.9359
" />
<path d="M205.3880 192.9359
L205.4594 192.8645
" />
<path d="M205.4594 192.8645
L205.4594 193.0074
" />
</g><path d="M177.0022 194.5072
L285.0022 194.5072
" />
<text x="178.0022" y="196.6572"
textLength="20.8716" font-size="2.0000" lengthAdjust="spacingAndGlyphs"
text-anchor="start" opacity="0" stroke-opacity="0">KiCad E.D.A. 8.0.5</text>
<g class="stroked-text"><desc>KiCad E.D.A. 8.0.5</desc>
<path d="M178.4595 196.5931
L178.4595 195.0931
" />
<path d="M179.3166 196.5931
L178.6738 195.7359
" />
<path d="M179.3166 195.0931
L178.4595 195.9502
" />
<path d="M179.9595 196.5931
L179.9595 195.5931
" />
<path d="M179.9595 195.0931
L179.8881 195.1645
" />
<path d="M179.8881 195.1645
L179.9595 195.2359
" />
<path d="M179.9595 195.2359
L180.0309 195.1645
" />
<path d="M180.0309 195.1645
L179.9595 195.0931
" />
<path d="M179.9595 195.0931
L179.9595 195.2359
" />
<path d="M181.5309 196.4502
L181.4595 196.5217
" />
<path d="M181.4595 196.5217
L181.2452 196.5931
" />
<path d="M181.2452 196.5931
L181.1024 196.5931
" />
<path d="M181.1024 196.5931
L180.8881 196.5217
" />
<path d="M180.8881 196.5217
L180.7452 196.3788
" />
<path d="M180.7452 196.3788
L180.6738 196.2359
" />
<path d="M180.6738 196.2359
L180.6024 195.9502
" />
<path d="M180.6024 195.9502
L180.6024 195.7359
" />
<path d="M180.6024 195.7359
L180.6738 195.4502
" />
<path d="M180.6738 195.4502
L180.7452 195.3074
" />
<path d="M180.7452 195.3074
L180.8881 195.1645
" />
<path d="M180.8881 195.1645
L181.1024 195.0931
" />
<path d="M181.1024 195.0931
L181.2452 195.0931
" />
<path d="M181.2452 195.0931
L181.4595 195.1645
" />
<path d="M181.4595 195.1645
L181.5309 195.2359
" />
<path d="M182.8167 196.5931
L182.8167 195.8074
" />
<path d="M182.8167 195.8074
L182.7452 195.6645
" />
<path d="M182.7452 195.6645
L182.6024 195.5931
" />
<path d="M182.6024 195.5931
L182.3167 195.5931
" />
<path d="M182.3167 195.5931
L182.1738 195.6645
" />
<path d="M182.8167 196.5217
L182.6738 196.5931
" />
<path d="M182.6738 196.5931
L182.3167 196.5931
" />
<path d="M182.3167 196.5931
L182.1738 196.5217
" />
<path d="M182.1738 196.5217
L182.1024 196.3788
" />
<path d="M182.1024 196.3788
L182.1024 196.2359
" />
<path d="M182.1024 196.2359
L182.1738 196.0931
" />
<path d="M182.1738 196.0931
L182.3167 196.0217
" />
<path d="M182.3167 196.0217
L182.6738 196.0217
" />
<path d="M182.6738 196.0217
L182.8167 195.9502
" />
<path d="M184.1738 196.5931
L184.1738 195.0931
" />
<path d="M184.1738 196.5217
L184.0309 196.5931
" />
<path d="M184.0309 196.5931
L183.7452 196.5931
" />
<path d="M183.7452 196.5931
L183.6023 196.5217
" />
<path d="M183.6023 196.5217
L183.5309 196.4502
" />
<path d="M183.5309 196.4502
L183.4595 196.3074
" />
<path d="M183.4595 196.3074
L183.4595 195.8788
" />
<path d="M183.4595 195.8788
L183.5309 195.7359
" />
<path d="M183.5309 195.7359
L183.6023 195.6645
" />
<path d="M183.6023 195.6645
L183.7452 195.5931
" />
<path d="M183.7452 195.5931
L184.0309 195.5931
" />
<path d="M184.0309 195.5931
L184.1738 195.6645
" />
<path d="M186.0309 195.8074
L186.5309 195.8074
" />
<path d="M186.7452 196.5931
L186.0309 196.5931
" />
<path d="M186.0309 196.5931
L186.0309 195.0931
" />
<path d="M186.0309 195.0931
L186.7452 195.0931
" />
<path d="M187.3880 196.4502
L187.4594 196.5217
" />
<path d="M187.4594 196.5217
L187.3880 196.5931
" />
<path d="M187.3880 196.5931
L187.3166 196.5217
" />
<path d="M187.3166 196.5217
L187.3880 196.4502
" />
<path d="M187.3880 196.4502
L187.3880 196.5931
" />
<path d="M188.1023 196.5931
L188.1023 195.0931
" />
<path d="M188.1023 195.0931
L188.4594 195.0931
" />
<path d="M188.4594 195.0931
L188.6737 195.1645
" />
<path d="M188.6737 195.1645
L188.8166 195.3074
" />
<path d="M188.8166 195.3074
L188.8880 195.4502
" />
<path d="M188.8880 195.4502
L188.9594 195.7359
" />
<path d="M188.9594 195.7359
L188.9594 195.9502
" />
<path d="M188.9594 195.9502
L188.8880 196.2359
" />
<path d="M188.8880 196.2359
L188.8166 196.3788
" />
<path d="M188.8166 196.3788
L188.6737 196.5217
" />
<path d="M188.6737 196.5217
L188.4594 196.5931
" />
<path d="M188.4594 196.5931
L188.1023 196.5931
" />
<path d="M189.6023 196.4502
L189.6737 196.5217
" />
<path d="M189.6737 196.5217
L189.6023 196.5931
" />
<path d="M189.6023 196.5931
L189.5309 196.5217
" />
<path d="M189.5309 196.5217
L189.6023 196.4502
" />
<path d="M189.6023 196.4502
L189.6023 196.5931
" />
<path d="M190.2452 196.1645
L190.9595 196.1645
" />
<path d="M190.1023 196.5931
L190.6023 195.0931
" />
<path d="M190.6023 195.0931
L191.1023 196.5931
" />
<path d="M191.6023 196.4502
L191.6737 196.5217
" />
<path d="M191.6737 196.5217
L191.6023 196.5931
" />
<path d="M191.6023 196.5931
L191.5309 196.5217
" />
<path d="M191.5309 196.5217
L191.6023 196.4502
" />
<path d="M191.6023 196.4502
L191.6023 196.5931
" />
<path d="M193.6738 195.7359
L193.5309 195.6645
" />
<path d="M193.5309 195.6645
L193.4595 195.5931
" />
<path d="M193.4595 195.5931
L193.3881 195.4502
" />
<path d="M193.3881 195.4502
L193.3881 195.3788
" />
<path d="M193.3881 195.3788
L193.4595 195.2359
" />
<path d="M193.4595 195.2359
L193.5309 195.1645
" />
<path d="M193.5309 195.1645
L193.6738 195.0931
" />
<path d="M193.6738 195.0931
L193.9595 195.0931
" />
<path d="M193.9595 195.0931
L194.1024 195.1645
" />
<path d="M194.1024 195.1645
L194.1738 195.2359
" />
<path d="M194.1738 195.2359
L194.2452 195.3788
" />
<path d="M194.2452 195.3788
L194.2452 195.4502
" />
<path d="M194.2452 195.4502
L194.1738 195.5931
" />
<path d="M194.1738 195.5931
L194.1024 195.6645
" />
<path d="M194.1024 195.6645
L193.9595 195.7359
" />
<path d="M193.9595 195.7359
L193.6738 195.7359
" />
<path d="M193.6738 195.7359
L193.5309 195.8074
" />
<path d="M193.5309 195.8074
L193.4595 195.8788
" />
<path d="M193.4595 195.8788
L193.3881 196.0217
" />
<path d="M193.3881 196.0217
L193.3881 196.3074
" />
<path d="M193.3881 196.3074
L193.4595 196.4502
" />
<path d="M193.4595 196.4502
L193.5309 196.5217
" />
<path d="M193.5309 196.5217
L193.6738 196.5931
" />
<path d="M193.6738 196.5931
L193.9595 196.5931
" />
<path d="M193.9595 196.5931
L194.1024 196.5217
" />
<path d="M194.1024 196.5217
L194.1738 196.4502
" />
<path d="M194.1738 196.4502
L194.2452 196.3074
" />
<path d="M194.2452 196.3074
L194.2452 196.0217
" />
<path d="M194.2452 196.0217
L194.1738 195.8788
" />
<path d="M194.1738 195.8788
L194.1024 195.8074
" />
<path d="M194.1024 195.8074
L193.9595 195.7359
" />
<path d="M194.8881 196.4502
L194.9595 196.5217
" />
<path d="M194.9595 196.5217
L194.8881 196.5931
" />
<path d="M194.8881 196.5931
L194.8167 196.5217
" />
<path d="M194.8167 196.5217
L194.8881 196.4502
" />
<path d="M194.8881 196.4502
L194.8881 196.5931
" />
<path d="M195.8881 195.0931
L196.0310 195.0931
" />
<path d="M196.0310 195.0931
L196.1738 195.1645
" />
<path d="M196.1738 195.1645
L196.2453 195.2359
" />
<path d="M196.2453 195.2359
L196.3167 195.3788
" />
<path d="M196.3167 195.3788
L196.3881 195.6645
" />
<path d="M196.3881 195.6645
L196.3881 196.0217
" />
<path d="M196.3881 196.0217
L196.3167 196.3074
" />
<path d="M196.3167 196.3074
L196.2453 196.4502
" />
<path d="M196.2453 196.4502
L196.1738 196.5217
" />
<path d="M196.1738 196.5217
L196.0310 196.5931
" />
<path d="M196.0310 196.5931
L195.8881 196.5931
" />
<path d="M195.8881 196.5931
L195.7453 196.5217
" />
<path d="M195.7453 196.5217
L195.6738 196.4502
" />
<path d="M195.6738 196.4502
L195.6024 196.3074
" />
<path d="M195.6024 196.3074
L195.5310 196.0217
" />
<path d="M195.5310 196.0217
L195.5310 195.6645
" />
<path d="M195.5310 195.6645
L195.6024 195.3788
" />
<path d="M195.6024 195.3788
L195.6738 195.2359
" />
<path d="M195.6738 195.2359
L195.7453 195.1645
" />
<path d="M195.7453 195.1645
L195.8881 195.0931
" />
<path d="M197.0310 196.4502
L197.1024 196.5217
" />
<path d="M197.1024 196.5217
L197.0310 196.5931
" />
<path d="M197.0310 196.5931
L196.9596 196.5217
" />
<path d="M196.9596 196.5217
L197.0310 196.4502
" />
<path d="M197.0310 196.4502
L197.0310 196.5931
" />
<path d="M198.4596 195.0931
L197.7453 195.0931
" />
<path d="M197.7453 195.0931
L197.6739 195.8074
" />
<path d="M197.6739 195.8074
L197.7453 195.7359
" />
<path d="M197.7453 195.7359
L197.8882 195.6645
" />
<path d="M197.8882 195.6645
L198.2453 195.6645
" />
<path d="M198.2453 195.6645
L198.3882 195.7359
" />
<path d="M198.3882 195.7359
L198.4596 195.8074
" />
<path d="M198.4596 195.8074
L198.5310 195.9502
" />
<path d="M198.5310 195.9502
L198.5310 196.3074
" />
<path d="M198.5310 196.3074
L198.4596 196.4502
" />
<path d="M198.4596 196.4502
L198.3882 196.5217
" />
<path d="M198.3882 196.5217
L198.2453 196.5931
" />
<path d="M198.2453 196.5931
L197.8882 196.5931
" />
<path d="M197.8882 196.5931
L197.7453 196.5217
" />
<path d="M197.7453 196.5217
L197.6739 196.4502
" />
</g><path d="M177.0022 191.5072
L285.0022 191.5072
" />
</g>
<g style="fill:none; 
stroke:#840000; stroke-width:0.3000; stroke-opacity:1; 
stroke-linecap:round; stroke-linejoin:round;">
<text x="263.0022" y="193.8572"
textLength="6.3858" font-size="2.0000" lengthAdjust="spacingAndGlyphs"
text-anchor="start" opacity="0" stroke-opacity="0">Rev: </text>
<g class="stroked-text"><desc>Rev: </desc>
<path d="M264.4137 193.7855
L263.9137 193.0712
" />
<path d="M263.5566 193.7855
L263.5566 192.2855
" />
<path d="M263.5566 192.2855
L264.1280 192.2855
" />
<path d="M264.1280 192.2855
L264.2709 192.3569
" />
<path d="M264.2709 192.3569
L264.3423 192.4283
" />
<path d="M264.3423 192.4283
L264.4137 192.5712
" />
<path d="M264.4137 192.5712
L264.4137 192.7855
" />
<path d="M264.4137 192.7855
L264.3423 192.9283
" />
<path d="M264.3423 192.9283
L264.2709 192.9998
" />
<path d="M264.2709 192.9998
L264.1280 193.0712
" />
<path d="M264.1280 193.0712
L263.5566 193.0712
" />
<path d="M265.6280 193.7141
L265.4852 193.7855
" />
<path d="M265.4852 193.7855
L265.1995 193.7855
" />
<path d="M265.1995 193.7855
L265.0566 193.7141
" />
<path d="M265.0566 193.7141
L264.9852 193.5712
" />
<path d="M264.9852 193.5712
L264.9852 192.9998
" />
<path d="M264.9852 192.9998
L265.0566 192.8569
" />
<path d="M265.0566 192.8569
L265.1995 192.7855
" />
<path d="M265.1995 192.7855
L265.4852 192.7855
" />
<path d="M265.4852 192.7855
L265.6280 192.8569
" />
<path d="M265.6280 192.8569
L265.6995 192.9998
" />
<path d="M265.6995 192.9998
L265.6995 193.1426
" />
<path d="M265.6995 193.1426
L264.9852 193.2855
" />
<path d="M266.1994 192.7855
L266.5566 193.7855
" />
<path d="M266.5566 193.7855
L266.9137 192.7855
" />
<path d="M267.4852 193.6426
L267.5566 193.7141
" />
<path d="M267.5566 193.7141
L267.4852 193.7855
" />
<path d="M267.4852 193.7855
L267.4138 193.7141
" />
<path d="M267.4138 193.7141
L267.4852 193.6426
" />
<path d="M267.4852 193.6426
L267.4852 193.7855
" />
<path d="M267.4852 192.8569
L267.5566 192.9283
" />
<path d="M267.5566 192.9283
L267.4852 192.9998
" />
<path d="M267.4852 192.9998
L267.4138 192.9283
" />
<path d="M267.4138 192.9283
L267.4852 192.8569
" />
<path d="M267.4852 192.8569
L267.4852 192.9998
" />
</g></g>
<g style="fill:none; 
stroke:#840000; stroke-width:0.1524; stroke-opacity:1; 
stroke-linecap:round; stroke-linejoin:round;">
<text x="178.0022" y="193.8572"
textLength="9.3716" font-size="2.0000" lengthAdjust="spacingAndGlyphs"
text-anchor="start" opacity="0" stroke-opacity="0">Size: A4</text>
<g class="stroked-text"><desc>Size: A4</desc>
<path d="M178.3881 193.7217
L178.6024 193.7931
" />
<path d="M178.6024 193.7931
L178.9595 193.7931
" />
<path d="M178.9595 193.7931
L179.1024 193.7217
" />
<path d="M179.1024 193.7217
L179.1738 193.6502
" />
<path d="M179.1738 193.6502
L179.2452 193.5074
" />
<path d="M179.2452 193.5074
L179.2452 193.3645
" />
<path d="M179.2452 193.3645
L179.1738 193.2217
" />
<path d="M179.1738 193.2217
L179.1024 193.1502
" />
<path d="M179.1024 193.1502
L178.9595 193.0788
" />
<path d="M178.9595 193.0788
L178.6738 193.0074
" />
<path d="M178.6738 193.0074
L178.5309 192.9359
" />
<path d="M178.5309 192.9359
L178.4595 192.8645
" />
<path d="M178.4595 192.8645
L178.3881 192.7217
" />
<path d="M178.3881 192.7217
L178.3881 192.5788
" />
<path d="M178.3881 192.5788
L178.4595 192.4359
" />
<path d="M178.4595 192.4359
L178.5309 192.3645
" />
<path d="M178.5309 192.3645
L178.6738 192.2931
" />
<path d="M178.6738 192.2931
L179.0309 192.2931
" />
<path d="M179.0309 192.2931
L179.2452 192.3645
" />
<path d="M179.8881 193.7931
L179.8881 192.7931
" />
<path d="M179.8881 192.2931
L179.8167 192.3645
" />
<path d="M179.8167 192.3645
L179.8881 192.4359
" />
<path d="M179.8881 192.4359
L179.9595 192.3645
" />
<path d="M179.9595 192.3645
L179.8881 192.2931
" />
<path d="M179.8881 192.2931
L179.8881 192.4359
" />
<path d="M180.4595 192.7931
L181.2453 192.7931
" />
<path d="M181.2453 192.7931
L180.4595 193.7931
" />
<path d="M180.4595 193.7931
L181.2453 193.7931
" />
<path d="M182.3881 193.7217
L182.2453 193.7931
" />
<path d="M182.2453 193.7931
L181.9596 193.7931
" />
<path d="M181.9596 193.7931
L181.8167 193.7217
" />
<path d="M181.8167 193.7217
L181.7453 193.5788
" />
<path d="M181.7453 193.5788
L181.7453 193.0074
" />
<path d="M181.7453 193.0074
L181.8167 192.8645
" />
<path d="M181.8167 192.8645
L181.9596 192.7931
" />
<path d="M181.9596 192.7931
L182.2453 192.7931
" />
<path d="M182.2453 192.7931
L182.3881 192.8645
" />
<path d="M182.3881 192.8645
L182.4596 193.0074
" />
<path d="M182.4596 193.0074
L182.4596 193.1502
" />
<path d="M182.4596 193.1502
L181.7453 193.2931
" />
<path d="M183.1024 193.6502
L183.1738 193.7217
" />
<path d="M183.1738 193.7217
L183.1024 193.7931
" />
<path d="M183.1024 193.7931
L183.0310 193.7217
" />
<path d="M183.0310 193.7217
L183.1024 193.6502
" />
<path d="M183.1024 193.6502
L183.1024 193.7931
" />
<path d="M183.1024 192.8645
L183.1738 192.9359
" />
<path d="M183.1738 192.9359
L183.1024 193.0074
" />
<path d="M183.1024 193.0074
L183.0310 192.9359
" />
<path d="M183.0310 192.9359
L183.1024 192.8645
" />
<path d="M183.1024 192.8645
L183.1024 193.0074
" />
<path d="M184.8882 193.3645
L185.6025 193.3645
" />
<path d="M184.7453 193.7931
L185.2453 192.2931
" />
<path d="M185.2453 192.2931
L185.7453 193.7931
" />
<path d="M186.8882 192.7931
L186.8882 193.7931
" />
<path d="M186.5310 192.2217
L186.1739 193.2931
" />
<path d="M186.1739 193.2931
L187.1024 193.2931
" />
</g><text x="263.0022" y="196.6572"
textLength="8.5144" font-size="2.0000" lengthAdjust="spacingAndGlyphs"
text-anchor="start" opacity="0" stroke-opacity="0">Id: 1/1</text>
<g class="stroked-text"><desc>Id: 1/1</desc>
<path d="M263.4595 196.5931
L263.4595 195.0931
" />
<path d="M264.8167 196.5931
L264.8167 195.0931
" />
<path d="M264.8167 196.5217
L264.6738 196.5931
" />
<path d="M264.6738 196.5931
L264.3881 196.5931
" />
<path d="M264.3881 196.5931
L264.2452 196.5217
" />
<path d="M264.2452 196.5217
L264.1738 196.4502
" />
<path d="M264.1738 196.4502
L264.1024 196.3074
" />
<path d="M264.1024 196.3074
L264.1024 195.8788
" />
<path d="M264.1024 195.8788
L264.1738 195.7359
" />
<path d="M264.1738 195.7359
L264.2452 195.6645
" />
<path d="M264.2452 195.6645
L264.3881 195.5931
" />
<path d="M264.3881 195.5931
L264.6738 195.5931
" />
<path d="M264.6738 195.5931
L264.8167 195.6645
" />
<path d="M265.5309 196.4502
L265.6023 196.5217
" />
<path d="M265.6023 196.5217
L265.5309 196.5931
" />
<path d="M265.5309 196.5931
L265.4595 196.5217
" />
<path d="M265.4595 196.5217
L265.5309 196.4502
" />
<path d="M265.5309 196.4502
L265.5309 196.5931
" />
<path d="M265.5309 195.6645
L265.6023 195.7359
" />
<path d="M265.6023 195.7359
L265.5309 195.8074
" />
<path d="M265.5309 195.8074
L265.4595 195.7359
" />
<path d="M265.4595 195.7359
L265.5309 195.6645
" />
<path d="M265.5309 195.6645
L265.5309 195.8074
" />
<path d="M268.1738 196.5931
L267.3167 196.5931
" />
<path d="M267.7452 196.5931
L267.7452 195.0931
" />
<path d="M267.7452 195.0931
L267.6024 195.3074
" />
<path d="M267.6024 195.3074
L267.4595 195.4502
" />
<path d="M267.4595 195.4502
L267.3167 195.5217
" />
<path d="M269.8881 195.0217
L268.6024 196.9502
" />
<path d="M271.1738 196.5931
L270.3167 196.5931
" />
<path d="M270.7452 196.5931
L270.7452 195.0931
" />
<path d="M270.7452 195.0931
L270.6024 195.3074
" />
<path d="M270.6024 195.3074
L270.4595 195.4502
" />
<path d="M270.4595 195.4502
L270.3167 195.5217
" />
</g><path d="M177.0022 187.5072
L285.0022 187.5072
" />
</g>
<g style="fill:none; 
stroke:#840000; stroke-width:0.4000; stroke-opacity:1; 
stroke-linecap:round; stroke-linejoin:round;">
<text x="178.0022" y="190.3072"
textLength="9.6572" font-size="2.6666" lengthAdjust="spacingAndGlyphs"
text-anchor="start" opacity="0" stroke-opacity="0">Title: </text>
<g class="stroked-text"><desc>Title: </desc>
<path d="M178.6938 188.2116
L179.8367 188.2116
" />
<path d="M179.0153 190.2116
L179.2653 188.2116
" />
<path d="M180.2533 190.2116
L180.4200 188.8783
" />
<path d="M180.5033 188.2116
L180.3962 188.3068
" />
<path d="M180.3962 188.3068
L180.4795 188.4021
" />
<path d="M180.4795 188.4021
L180.5867 188.3068
" />
<path d="M180.5867 188.3068
L180.5033 188.2116
" />
<path d="M180.5033 188.2116
L180.4795 188.4021
" />
<path d="M181.0867 188.8783
L181.8486 188.8783
" />
<path d="M181.4557 188.2116
L181.2415 189.9259
" />
<path d="M181.2415 189.9259
L181.3129 190.1164
" />
<path d="M181.3129 190.1164
L181.4915 190.2116
" />
<path d="M181.4915 190.2116
L181.6819 190.2116
" />
<path d="M182.6344 190.2116
L182.4558 190.1164
" />
<path d="M182.4558 190.1164
L182.3844 189.9259
" />
<path d="M182.3844 189.9259
L182.5986 188.2116
" />
<path d="M184.1700 190.1164
L183.9677 190.2116
" />
<path d="M183.9677 190.2116
L183.5867 190.2116
" />
<path d="M183.5867 190.2116
L183.4081 190.1164
" />
<path d="M183.4081 190.1164
L183.3367 189.9259
" />
<path d="M183.3367 189.9259
L183.4320 189.1640
" />
<path d="M183.4320 189.1640
L183.5510 188.9735
" />
<path d="M183.5510 188.9735
L183.7534 188.8783
" />
<path d="M183.7534 188.8783
L184.1343 188.8783
" />
<path d="M184.1343 188.8783
L184.3129 188.9735
" />
<path d="M184.3129 188.9735
L184.3843 189.1640
" />
<path d="M184.3843 189.1640
L184.3605 189.3544
" />
<path d="M184.3605 189.3544
L183.3843 189.5449
" />
<path d="M185.1343 190.0211
L185.2177 190.1164
" />
<path d="M185.2177 190.1164
L185.1105 190.2116
" />
<path d="M185.1105 190.2116
L185.0272 190.1164
" />
<path d="M185.0272 190.1164
L185.1343 190.0211
" />
<path d="M185.1343 190.0211
L185.1105 190.2116
" />
<path d="M185.2653 188.9735
L185.3486 189.0687
" />
<path d="M185.3486 189.0687
L185.2415 189.1640
" />
<path d="M185.2415 189.1640
L185.1582 189.0687
" />
<path d="M185.1582 189.0687
L185.2653 188.9735
" />
<path d="M185.2653 188.9735
L185.2415 189.1640
" />
</g></g>
<g style="fill:none; 
stroke:#840000; stroke-width:0.1524; stroke-opacity:1; 
stroke-linecap:round; stroke-linejoin:round;">
<text x="178.0022" y="186.4572"
textLength="35.7283" font-size="2.0000" lengthAdjust="spacingAndGlyphs"
text-anchor="start" opacity="0" stroke-opacity="0">File: ampli_bootstrap.kicad_sch</text>
<g class="stroked-text"><desc>File: ampli_bootstrap.kicad_sch</desc>
<path d="M178.9595 185.6074
L178.4595 185.6074
" />
<path d="M178.4595 186.3931
L178.4595 184.8931
" />
<path d="M178.4595 184.8931
L179.1738 184.8931
" />
<path d="M179.7452 186.3931
L179.7452 185.3931
" />
<path d="M179.7452 184.8931
L179.6738 184.9645
" />
<path d="M179.6738 184.9645
L179.7452 185.0359
" />
<path d="M179.7452 185.0359
L179.8166 184.9645
" />
<path d="M179.8166 184.9645
L179.7452 184.8931
" />
<path d="M179.7452 184.8931
L179.7452 185.0359
" />
<path d="M180.6738 186.3931
L180.5309 186.3217
" />
<path d="M180.5309 186.3217
L180.4595 186.1788
" />
<path d="M180.4595 186.1788
L180.4595 184.8931
" />
<path d="M181.8166 186.3217
L181.6738 186.3931
" />
<path d="M181.6738 186.3931
L181.3881 186.3931
" />
<path d="M181.3881 186.3931
L181.2452 186.3217
" />
<path d="M181.2452 186.3217
L181.1738 186.1788
" />
<path d="M181.1738 186.1788
L181.1738 185.6074
" />
<path d="M181.1738 185.6074
L181.2452 185.4645
" />
<path d="M181.2452 185.4645
L181.3881 185.3931
" />
<path d="M181.3881 185.3931
L181.6738 185.3931
" />
<path d="M181.6738 185.3931
L181.8166 185.4645
" />
<path d="M181.8166 185.4645
L181.8881 185.6074
" />
<path d="M181.8881 185.6074
L181.8881 185.7502
" />
<path d="M181.8881 185.7502
L181.1738 185.8931
" />
<path d="M182.5309 186.2502
L182.6023 186.3217
" />
<path d="M182.6023 186.3217
L182.5309 186.3931
" />
<path d="M182.5309 186.3931
L182.4595 186.3217
" />
<path d="M182.4595 186.3217
L182.5309 186.2502
" />
<path d="M182.5309 186.2502
L182.5309 186.3931
" />
<path d="M182.5309 185.4645
L182.6023 185.5359
" />
<path d="M182.6023 185.5359
L182.5309 185.6074
" />
<path d="M182.5309 185.6074
L182.4595 185.5359
" />
<path d="M182.4595 185.5359
L182.5309 185.4645
" />
<path d="M182.5309 185.4645
L182.5309 185.6074
" />
<path d="M185.0310 186.3931
L185.0310 185.6074
" />
<path d="M185.0310 185.6074
L184.9595 185.4645
" />
<path d="M184.9595 185.4645
L184.8167 185.3931
" />
<path d="M184.8167 185.3931
L184.5310 185.3931
" />
<path d="M184.5310 185.3931
L184.3881 185.4645
" />
<path d="M185.0310 186.3217
L184.8881 186.3931
" />
<path d="M184.8881 186.3931
L184.5310 186.3931
" />
<path d="M184.5310 186.3931
L184.3881 186.3217
" />
<path d="M184.3881 186.3217
L184.3167 186.1788
" />
<path d="M184.3167 186.1788
L184.3167 186.0359
" />
<path d="M184.3167 186.0359
L184.3881 185.8931
" />
<path d="M184.3881 185.8931
L184.5310 185.8217
" />
<path d="M184.5310 185.8217
L184.8881 185.8217
" />
<path d="M184.8881 185.8217
L185.0310 185.7502
" />
<path d="M185.7452 186.3931
L185.7452 185.3931
" />
<path d="M185.7452 185.5359
L185.8166 185.4645
" />
<path d="M185.8166 185.4645
L185.9595 185.3931
" />
<path d="M185.9595 185.3931
L186.1738 185.3931
" />
<path d="M186.1738 185.3931
L186.3166 185.4645
" />
<path d="M186.3166 185.4645
L186.3881 185.6074
" />
<path d="M186.3881 185.6074
L186.3881 186.3931
" />
<path d="M186.3881 185.6074
L186.4595 185.4645
" />
<path d="M186.4595 185.4645
L186.6023 185.3931
" />
<path d="M186.6023 185.3931
L186.8166 185.3931
" />
<path d="M186.8166 185.3931
L186.9595 185.4645
" />
<path d="M186.9595 185.4645
L187.0309 185.6074
" />
<path d="M187.0309 185.6074
L187.0309 186.3931
" />
<path d="M187.7452 185.3931
L187.7452 186.8931
" />
<path d="M187.7452 185.4645
L187.8881 185.3931
" />
<path d="M187.8881 185.3931
L188.1738 185.3931
" />
<path d="M188.1738 185.3931
L188.3166 185.4645
" />
<path d="M188.3166 185.4645
L188.3881 185.5359
" />
<path d="M188.3881 185.5359
L188.4595 185.6788
" />
<path d="M188.4595 185.6788
L188.4595 186.1074
" />
<path d="M188.4595 186.1074
L188.3881 186.2502
" />
<path d="M188.3881 186.2502
L188.3166 186.3217
" />
<path d="M188.3166 186.3217
L188.1738 186.3931
" />
<path d="M188.1738 186.3931
L187.8881 186.3931
" />
<path d="M187.8881 186.3931
L187.7452 186.3217
" />
<path d="M189.3166 186.3931
L189.1737 186.3217
" />
<path d="M189.1737 186.3217
L189.1023 186.1788
" />
<path d="M189.1023 186.1788
L189.1023 184.8931
" />
<path d="M189.8880 186.3931
L189.8880 185.3931
" />
<path d="M189.8880 184.8931
L189.8166 184.9645
" />
<path d="M189.8166 184.9645
L189.8880 185.0359
" />
<path d="M189.8880 185.0359
L189.9594 184.9645
" />
<path d="M189.9594 184.9645
L189.8880 184.8931
" />
<path d="M189.8880 184.8931
L189.8880 185.0359
" />
<path d="M190.2452 186.5359
L191.3880 186.5359
" />
<path d="M191.7452 186.3931
L191.7452 184.8931
" />
<path d="M191.7452 185.4645
L191.8881 185.3931
" />
<path d="M191.8881 185.3931
L192.1738 185.3931
" />
<path d="M192.1738 185.3931
L192.3166 185.4645
" />
<path d="M192.3166 185.4645
L192.3881 185.5359
" />
<path d="M192.3881 185.5359
L192.4595 185.6788
" />
<path d="M192.4595 185.6788
L192.4595 186.1074
" />
<path d="M192.4595 186.1074
L192.3881 186.2502
" />
<path d="M192.3881 186.2502
L192.3166 186.3217
" />
<path d="M192.3166 186.3217
L192.1738 186.3931
" />
<path d="M192.1738 186.3931
L191.8881 186.3931
" />
<path d="M191.8881 186.3931
L191.7452 186.3217
" />
<path d="M193.3166 186.3931
L193.1737 186.3217
" />
<path d="M193.1737 186.3217
L193.1023 186.2502
" />
<path d="M193.1023 186.2502
L193.0309 186.1074
" />
<path d="M193.0309 186.1074
L193.0309 185.6788
" />
<path d="M193.0309 185.6788
L193.1023 185.5359
" />
<path d="M193.1023 185.5359
L193.1737 185.4645
" />
<path d="M193.1737 185.4645
L193.3166 185.3931
" />
<path d="M193.3166 185.3931
L193.5309 185.3931
" />
<path d="M193.5309 185.3931
L193.6737 185.4645
" />
<path d="M193.6737 185.4645
L193.7452 185.5359
" />
<path d="M193.7452 185.5359
L193.8166 185.6788
" />
<path d="M193.8166 185.6788
L193.8166 186.1074
" />
<path d="M193.8166 186.1074
L193.7452 186.2502
" />
<path d="M193.7452 186.2502
L193.6737 186.3217
" />
<path d="M193.6737 186.3217
L193.5309 186.3931
" />
<path d="M193.5309 186.3931
L193.3166 186.3931
" />
<path d="M194.6737 186.3931
L194.5308 186.3217
" />
<path d="M194.5308 186.3217
L194.4594 186.2502
" />
<path d="M194.4594 186.2502
L194.3880 186.1074
" />
<path d="M194.3880 186.1074
L194.3880 185.6788
" />
<path d="M194.3880 185.6788
L194.4594 185.5359
" />
<path d="M194.4594 185.5359
L194.5308 185.4645
" />
<path d="M194.5308 185.4645
L194.6737 185.3931
" />
<path d="M194.6737 185.3931
L194.8880 185.3931
" />
<path d="M194.8880 185.3931
L195.0308 185.4645
" />
<path d="M195.0308 185.4645
L195.1023 185.5359
" />
<path d="M195.1023 185.5359
L195.1737 185.6788
" />
<path d="M195.1737 185.6788
L195.1737 186.1074
" />
<path d="M195.1737 186.1074
L195.1023 186.2502
" />
<path d="M195.1023 186.2502
L195.0308 186.3217
" />
<path d="M195.0308 186.3217
L194.8880 186.3931
" />
<path d="M194.8880 186.3931
L194.6737 186.3931
" />
<path d="M195.6022 185.3931
L196.1736 185.3931
" />
<path d="M195.8165 184.8931
L195.8165 186.1788
" />
<path d="M195.8165 186.1788
L195.8879 186.3217
" />
<path d="M195.8879 186.3217
L196.0308 186.3931
" />
<path d="M196.0308 186.3931
L196.1736 186.3931
" />
<path d="M196.6022 186.3217
L196.7450 186.3931
" />
<path d="M196.7450 186.3931
L197.0307 186.3931
" />
<path d="M197.0307 186.3931
L197.1736 186.3217
" />
<path d="M197.1736 186.3217
L197.2450 186.1788
" />
<path d="M197.2450 186.1788
L197.2450 186.1074
" />
<path d="M197.2450 186.1074
L197.1736 185.9645
" />
<path d="M197.1736 185.9645
L197.0307 185.8931
" />
<path d="M197.0307 185.8931
L196.8165 185.8931
" />
<path d="M196.8165 185.8931
L196.6736 185.8217
" />
<path d="M196.6736 185.8217
L196.6022 185.6788
" />
<path d="M196.6022 185.6788
L196.6022 185.6074
" />
<path d="M196.6022 185.6074
L196.6736 185.4645
" />
<path d="M196.6736 185.4645
L196.8165 185.3931
" />
<path d="M196.8165 185.3931
L197.0307 185.3931
" />
<path d="M197.0307 185.3931
L197.1736 185.4645
" />
<path d="M197.6736 185.3931
L198.2450 185.3931
" />
<path d="M197.8879 184.8931
L197.8879 186.1788
" />
<path d="M197.8879 186.1788
L197.9593 186.3217
" />
<path d="M197.9593 186.3217
L198.1022 186.3931
" />
<path d="M198.1022 186.3931
L198.2450 186.3931
" />
<path d="M198.7450 186.3931
L198.7450 185.3931
" />
<path d="M198.7450 185.6788
L198.8164 185.5359
" />
<path d="M198.8164 185.5359
L198.8879 185.4645
" />
<path d="M198.8879 185.4645
L199.0307 185.3931
" />
<path d="M199.0307 185.3931
L199.1736 185.3931
" />
<path d="M200.3165 186.3931
L200.3165 185.6074
" />
<path d="M200.3165 185.6074
L200.2450 185.4645
" />
<path d="M200.2450 185.4645
L200.1022 185.3931
" />
<path d="M200.1022 185.3931
L199.8165 185.3931
" />
<path d="M199.8165 185.3931
L199.6736 185.4645
" />
<path d="M200.3165 186.3217
L200.1736 186.3931
" />
<path d="M200.1736 186.3931
L199.8165 186.3931
" />
<path d="M199.8165 186.3931
L199.6736 186.3217
" />
<path d="M199.6736 186.3217
L199.6022 186.1788
" />
<path d="M199.6022 186.1788
L199.6022 186.0359
" />
<path d="M199.6022 186.0359
L199.6736 185.8931
" />
<path d="M199.6736 185.8931
L199.8165 185.8217
" />
<path d="M199.8165 185.8217
L200.1736 185.8217
" />
<path d="M200.1736 185.8217
L200.3165 185.7502
" />
<path d="M201.0307 185.3931
L201.0307 186.8931
" />
<path d="M201.0307 185.4645
L201.1736 185.3931
" />
<path d="M201.1736 185.3931
L201.4593 185.3931
" />
<path d="M201.4593 185.3931
L201.6021 185.4645
" />
<path d="M201.6021 185.4645
L201.6736 185.5359
" />
<path d="M201.6736 185.5359
L201.7450 185.6788
" />
<path d="M201.7450 185.6788
L201.7450 186.1074
" />
<path d="M201.7450 186.1074
L201.6736 186.2502
" />
<path d="M201.6736 186.2502
L201.6021 186.3217
" />
<path d="M201.6021 186.3217
L201.4593 186.3931
" />
<path d="M201.4593 186.3931
L201.1736 186.3931
" />
<path d="M201.1736 186.3931
L201.0307 186.3217
" />
<path d="M202.3878 186.2502
L202.4592 186.3217
" />
<path d="M202.4592 186.3217
L202.3878 186.3931
" />
<path d="M202.3878 186.3931
L202.3164 186.3217
" />
<path d="M202.3164 186.3217
L202.3878 186.2502
" />
<path d="M202.3878 186.2502
L202.3878 186.3931
" />
<path d="M203.1021 186.3931
L203.1021 184.8931
" />
<path d="M203.2450 185.8217
L203.6735 186.3931
" />
<path d="M203.6735 185.3931
L203.1021 185.9645
" />
<path d="M204.3164 186.3931
L204.3164 185.3931
" />
<path d="M204.3164 184.8931
L204.2450 184.9645
" />
<path d="M204.2450 184.9645
L204.3164 185.0359
" />
<path d="M204.3164 185.0359
L204.3878 184.9645
" />
<path d="M204.3878 184.9645
L204.3164 184.8931
" />
<path d="M204.3164 184.8931
L204.3164 185.0359
" />
<path d="M205.6736 186.3217
L205.5307 186.3931
" />
<path d="M205.5307 186.3931
L205.2450 186.3931
" />
<path d="M205.2450 186.3931
L205.1021 186.3217
" />
<path d="M205.1021 186.3217
L205.0307 186.2502
" />
<path d="M205.0307 186.2502
L204.9593 186.1074
" />
<path d="M204.9593 186.1074
L204.9593 185.6788
" />
<path d="M204.9593 185.6788
L205.0307 185.5359
" />
<path d="M205.0307 185.5359
L205.1021 185.4645
" />
<path d="M205.1021 185.4645
L205.2450 185.3931
" />
<path d="M205.2450 185.3931
L205.5307 185.3931
" />
<path d="M205.5307 185.3931
L205.6736 185.4645
" />
<path d="M206.9593 186.3931
L206.9593 185.6074
" />
<path d="M206.9593 185.6074
L206.8878 185.4645
" />
<path d="M206.8878 185.4645
L206.7450 185.3931
" />
<path d="M206.7450 185.3931
L206.4593 185.3931
" />
<path d="M206.4593 185.3931
L206.3164 185.4645
" />
<path d="M206.9593 186.3217
L206.8164 186.3931
" />
<path d="M206.8164 186.3931
L206.4593 186.3931
" />
<path d="M206.4593 186.3931
L206.3164 186.3217
" />
<path d="M206.3164 186.3217
L206.2450 186.1788
" />
<path d="M206.2450 186.1788
L206.2450 186.0359
" />
<path d="M206.2450 186.0359
L206.3164 185.8931
" />
<path d="M206.3164 185.8931
L206.4593 185.8217
" />
<path d="M206.4593 185.8217
L206.8164 185.8217
" />
<path d="M206.8164 185.8217
L206.9593 185.7502
" />
<path d="M208.3164 186.3931
L208.3164 184.8931
" />
<path d="M208.3164 186.3217
L208.1735 186.3931
" />
<path d="M208.1735 186.3931
L207.8878 186.3931
" />
<path d="M207.8878 186.3931
L207.7449 186.3217
" />
<path d="M207.7449 186.3217
L207.6735 186.2502
" />
<path d="M207.6735 186.2502
L207.6021 186.1074
" />
<path d="M207.6021 186.1074
L207.6021 185.6788
" />
<path d="M207.6021 185.6788
L207.6735 185.5359
" />
<path d="M207.6735 185.5359
L207.7449 185.4645
" />
<path d="M207.7449 185.4645
L207.8878 185.3931
" />
<path d="M207.8878 185.3931
L208.1735 185.3931
" />
<path d="M208.1735 185.3931
L208.3164 185.4645
" />
<path d="M208.6735 186.5359
L209.8163 186.5359
" />
<path d="M210.1021 186.3217
L210.2449 186.3931
" />
<path d="M210.2449 186.3931
L210.5306 186.3931
" />
<path d="M210.5306 186.3931
L210.6735 186.3217
" />
<path d="M210.6735 186.3217
L210.7449 186.1788
" />
<path d="M210.7449 186.1788
L210.7449 186.1074
" />
<path d="M210.7449 186.1074
L210.6735 185.9645
" />
<path d="M210.6735 185.9645
L210.5306 185.8931
" />
<path d="M210.5306 185.8931
L210.3164 185.8931
" />
<path d="M210.3164 185.8931
L210.1735 185.8217
" />
<path d="M210.1735 185.8217
L210.1021 185.6788
" />
<path d="M210.1021 185.6788
L210.1021 185.6074
" />
<path d="M210.1021 185.6074
L210.1735 185.4645
" />
<path d="M210.1735 185.4645
L210.3164 185.3931
" />
<path d="M210.3164 185.3931
L210.5306 185.3931
" />
<path d="M210.5306 185.3931
L210.6735 185.4645
" />
<path d="M212.0307 186.3217
L211.8878 186.3931
" />
<path d="M211.8878 186.3931
L211.6021 186.3931
" />
<path d="M211.6021 186.3931
L211.4592 186.3217
" />
<path d="M211.4592 186.3217
L211.3878 186.2502
" />
<path d="M211.3878 186.2502
L211.3164 186.1074
" />
<path d="M211.3164 186.1074
L211.3164 185.6788
" />
<path d="M211.3164 185.6788
L211.3878 185.5359
" />
<path d="M211.3878 185.5359
L211.4592 185.4645
" />
<path d="M211.4592 185.4645
L211.6021 185.3931
" />
<path d="M211.6021 185.3931
L211.8878 185.3931
" />
<path d="M211.8878 185.3931
L212.0307 185.4645
" />
<path d="M212.6735 186.3931
L212.6735 184.8931
" />
<path d="M213.3164 186.3931
L213.3164 185.6074
" />
<path d="M213.3164 185.6074
L213.2449 185.4645
" />
<path d="M213.2449 185.4645
L213.1021 185.3931
" />
<path d="M213.1021 185.3931
L212.8878 185.3931
" />
<path d="M212.8878 185.3931
L212.7449 185.4645
" />
<path d="M212.7449 185.4645
L212.6735 185.5359
" />
</g><path d="M177.0022 181.5072
L285.0022 181.5072
" />
<text x="178.0022" y="183.7572"
textLength="9.8000" font-size="2.0000" lengthAdjust="spacingAndGlyphs"
text-anchor="start" opacity="0" stroke-opacity="0">Sheet: /</text>
<g class="stroked-text"><desc>Sheet: /</desc>
<path d="M178.3881 183.6217
L178.6024 183.6931
" />
<path d="M178.6024 183.6931
L178.9595 183.6931
" />
<path d="M178.9595 183.6931
L179.1024 183.6217
" />
<path d="M179.1024 183.6217
L179.1738 183.5502
" />
<path d="M179.1738 183.5502
L179.2452 183.4074
" />
<path d="M179.2452 183.4074
L179.2452 183.2645
" />
<path d="M179.2452 183.2645
L179.1738 183.1217
" />
<path d="M179.1738 183.1217
L179.1024 183.0502
" />
<path d="M179.1024 183.0502
L178.9595 182.9788
" />
<path d="M178.9595 182.9788
L178.6738 182.9074
" />
<path d="M178.6738 182.9074
L178.5309 182.8359
" />
<path d="M178.5309 182.8359
L178.4595 182.7645
" />
<path d="M178.4595 182.7645
L178.3881 182.6217
" />
<path d="M178.3881 182.6217
L178.3881 182.4788
" />
<path d="M178.3881 182.4788
L178.4595 182.3359
" />
<path d="M178.4595 182.3359
L178.5309 182.2645
" />
<path d="M178.5309 182.2645
L178.6738 182.1931
" />
<path d="M178.6738 182.1931
L179.0309 182.1931
" />
<path d="M179.0309 182.1931
L179.2452 182.2645
" />
<path d="M179.8881 183.6931
L179.8881 182.1931
" />
<path d="M180.5310 183.6931
L180.5310 182.9074
" />
<path d="M180.5310 182.9074
L180.4595 182.7645
" />
<path d="M180.4595 182.7645
L180.3167 182.6931
" />
<path d="M180.3167 182.6931
L180.1024 182.6931
" />
<path d="M180.1024 182.6931
L179.9595 182.7645
" />
<path d="M179.9595 182.7645
L179.8881 182.8359
" />
<path d="M181.8166 183.6217
L181.6738 183.6931
" />
<path d="M181.6738 183.6931
L181.3881 183.6931
" />
<path d="M181.3881 183.6931
L181.2452 183.6217
" />
<path d="M181.2452 183.6217
L181.1738 183.4788
" />
<path d="M181.1738 183.4788
L181.1738 182.9074
" />
<path d="M181.1738 182.9074
L181.2452 182.7645
" />
<path d="M181.2452 182.7645
L181.3881 182.6931
" />
<path d="M181.3881 182.6931
L181.6738 182.6931
" />
<path d="M181.6738 182.6931
L181.8166 182.7645
" />
<path d="M181.8166 182.7645
L181.8881 182.9074
" />
<path d="M181.8881 182.9074
L181.8881 183.0502
" />
<path d="M181.8881 183.0502
L181.1738 183.1931
" />
<path d="M183.1023 183.6217
L182.9595 183.6931
" />
<path d="M182.9595 183.6931
L182.6738 183.6931
" />
<path d="M182.6738 183.6931
L182.5309 183.6217
" />
<path d="M182.5309 183.6217
L182.4595 183.4788
" />
<path d="M182.4595 183.4788
L182.4595 182.9074
" />
<path d="M182.4595 182.9074
L182.5309 182.7645
" />
<path d="M182.5309 182.7645
L182.6738 182.6931
" />
<path d="M182.6738 182.6931
L182.9595 182.6931
" />
<path d="M182.9595 182.6931
L183.1023 182.7645
" />
<path d="M183.1023 182.7645
L183.1738 182.9074
" />
<path d="M183.1738 182.9074
L183.1738 183.0502
" />
<path d="M183.1738 183.0502
L182.4595 183.1931
" />
<path d="M183.6023 182.6931
L184.1737 182.6931
" />
<path d="M183.8166 182.1931
L183.8166 183.4788
" />
<path d="M183.8166 183.4788
L183.8880 183.6217
" />
<path d="M183.8880 183.6217
L184.0309 183.6931
" />
<path d="M184.0309 183.6931
L184.1737 183.6931
" />
<path d="M184.6737 183.5502
L184.7451 183.6217
" />
<path d="M184.7451 183.6217
L184.6737 183.6931
" />
<path d="M184.6737 183.6931
L184.6023 183.6217
" />
<path d="M184.6023 183.6217
L184.6737 183.5502
" />
<path d="M184.6737 183.5502
L184.6737 183.6931
" />
<path d="M184.6737 182.7645
L184.7451 182.8359
" />
<path d="M184.7451 182.8359
L184.6737 182.9074
" />
<path d="M184.6737 182.9074
L184.6023 182.8359
" />
<path d="M184.6023 182.8359
L184.6737 182.7645
" />
<path d="M184.6737 182.7645
L184.6737 182.9074
" />
<path d="M187.6023 182.1217
L186.3166 184.0502
" />
</g></g>
<g style="fill:none; 
stroke:#840000; stroke-width:0.3000; stroke-opacity:1; 
stroke-linecap:round; stroke-linejoin:round;">
<text x="178.0022" y="180.7572"
textLength="0.9000" font-size="2.0000" lengthAdjust="spacingAndGlyphs"
text-anchor="start" opacity="0" stroke-opacity="0"></text>
<g class="stroked-text"><desc></desc>
</g></g>
<g style="fill:none; 
stroke:#840000; stroke-width:0.1524; stroke-opacity:1; 
stroke-linecap:round; stroke-linejoin:round;">
<text x="178.0022" y="177.7572"
textLength="0.4572" font-size="2.0000" lengthAdjust="spacingAndGlyphs"
text-anchor="start" opacity="0" stroke-opacity="0"></text>
<g class="stroked-text"><desc></desc>
</g><text x="178.0022" y="174.7572"
textLength="0.4572" font-size="2.0000" lengthAdjust="spacingAndGlyphs"
text-anchor="start" opacity="0" stroke-opacity="0"></text>
<g class="stroked-text"><desc></desc>
</g><text x="178.0022" y="171.7572"
textLength="0.4572" font-size="2.0000" lengthAdjust="spacingAndGlyphs"
text-anchor="start" opacity="0" stroke-opacity="0"></text>
<g class="stroked-text"><desc></desc>
</g><text x="178.0022" y="168.7572"
textLength="0.4572" font-size="2.0000" lengthAdjust="spacingAndGlyphs"
text-anchor="start" opacity="0" stroke-opacity="0"></text>
<g class="stroked-text"><desc></desc>
</g><path d="M197.0022 191.5072
L197.0022 194.5072
" />
<path d="M261.0022 191.5072
L261.0022 198.0072
" />
<path style="fill:none; 
stroke:#840000; stroke-width:0.1524; stroke-opacity:1; 
stroke-linecap:round; stroke-linejoin:round;fill:none"
d="M 36.8300,67.3100
36.8300,68.5800
38.1000,68.5800
36.8300,69.8500
35.5600,68.5800
36.8300,68.5800
" /> 
</g>
<g style="fill:none; 
stroke:#840000; stroke-width:0.1524; stroke-opacity:1; 
stroke-linecap:round; stroke-linejoin:round;">
<path d="M36.8300 67.3100
L36.8300 67.3100
" />
</g>
<g style="fill:none; 
stroke:#006464; stroke-width:0.1524; stroke-opacity:1; 
stroke-linecap:round; stroke-linejoin:round;">
<text x="36.8300" y="73.0250"
textLength="4.0737" font-size="1.6933" lengthAdjust="spacingAndGlyphs"
text-anchor="middle" opacity="0" stroke-opacity="0">GND</text>
<g class="stroked-text"><desc>GND</desc>
<path d="M35.8624 71.7600
L35.7414 71.6995
" />
<path d="M35.7414 71.6995
L35.5600 71.6995
" />
<path d="M35.5600 71.6995
L35.3786 71.7600
" />
<path d="M35.3786 71.7600
L35.2576 71.8810
" />
<path d="M35.2576 71.8810
L35.1971 72.0019
" />
<path d="M35.1971 72.0019
L35.1367 72.2438
" />
<path d="M35.1367 72.2438
L35.1367 72.4252
" />
<path d="M35.1367 72.4252
L35.1971 72.6671
" />
<path d="M35.1971 72.6671
L35.2576 72.7881
" />
<path d="M35.2576 72.7881
L35.3786 72.9091
" />
<path d="M35.3786 72.9091
L35.5600 72.9695
" />
<path d="M35.5600 72.9695
L35.6809 72.9695
" />
<path d="M35.6809 72.9695
L35.8624 72.9091
" />
<path d="M35.8624 72.9091
L35.9228 72.8486
" />
<path d="M35.9228 72.8486
L35.9228 72.4252
" />
<path d="M35.9228 72.4252
L35.6809 72.4252
" />
<path d="M36.4671 72.9695
L36.4671 71.6995
" />
<path d="M36.4671 71.6995
L37.1928 72.9695
" />
<path d="M37.1928 72.9695
L37.1928 71.6995
" />
<path d="M37.7976 72.9695
L37.7976 71.6995
" />
<path d="M37.7976 71.6995
L38.1000 71.6995
" />
<path d="M38.1000 71.6995
L38.2814 71.7600
" />
<path d="M38.2814 71.7600
L38.4024 71.8810
" />
<path d="M38.4024 71.8810
L38.4629 72.0019
" />
<path d="M38.4629 72.0019
L38.5233 72.2438
" />
<path d="M38.5233 72.2438
L38.5233 72.4252
" />
<path d="M38.5233 72.4252
L38.4629 72.6671
" />
<path d="M38.4629 72.6671
L38.4024 72.7881
" />
<path d="M38.4024 72.7881
L38.2814 72.9091
" />
<path d="M38.2814 72.9091
L38.1000 72.9695
" />
<path d="M38.1000 72.9695
L37.7976 72.9695
" />
</g><path style="fill:#FFFFC2; fill-opacity:1.0000; stroke:none;fill-rule:evenodd;"
d="M 62.2300,59.6900
72.3900,54.6100
62.2300,49.5300
Z" /> 
<path style="fill:none; 
stroke:#840000; stroke-width:0.2540; stroke-opacity:1; 
stroke-linecap:round; stroke-linejoin:round;fill:none"
d="M 62.2300,59.6900
72.3900,54.6100
62.2300,49.5300
Z" /> 
</g>
<g style="fill:none; 
stroke:#840000; stroke-width:0.1524; stroke-opacity:1; 
stroke-linecap:round; stroke-linejoin:round;">
<path d="M72.3900 54.6100
L74.9300 54.6100
" />
</g>
<g style="fill:none; 
stroke:#A90000; stroke-width:0.1524; stroke-opacity:1; 
stroke-linecap:round; stroke-linejoin:round;">
<text x="73.6600" y="54.3560"
textLength="1.4127" font-size="1.6933" lengthAdjust="spacingAndGlyphs"
text-anchor="middle" opacity="0" stroke-opacity="0">1</text>
<g class="stroked-text"><desc>1</desc>
<path d="M74.0229 54.1925
L73.2972 54.1925
" />
<path d="M73.6600 54.1925
L73.6600 52.9225
" />
<path d="M73.6600 52.9225
L73.5391 53.1040
" />
<path d="M73.5391 53.1040
L73.4181 53.2249
" />
<path d="M73.4181 53.2249
L73.2972 53.2854
" />
</g></g>
<g style="fill:none; 
stroke:#840000; stroke-width:0.1524; stroke-opacity:1; 
stroke-linecap:round; stroke-linejoin:round;">
<path d="M62.2300 52.0700
L59.6900 52.0700
" />
</g>
<g style="fill:none; 
stroke:#006464; stroke-width:0.1524; stroke-opacity:1; 
stroke-linecap:round; stroke-linejoin:round;">
<text x="62.3570" y="52.7050"
textLength="1.7756" font-size="1.6933" lengthAdjust="spacingAndGlyphs"
text-anchor="start" opacity="0" stroke-opacity="0">-</text>
<g class="stroked-text"><desc>-</desc>
<path d="M62.7595 52.1657
L63.7272 52.1657
" />
</g></g>
<g style="fill:none; 
stroke:#A90000; stroke-width:0.1524; stroke-opacity:1; 
stroke-linecap:round; stroke-linejoin:round;">
<text x="60.9600" y="51.8160"
textLength="1.4127" font-size="1.6933" lengthAdjust="spacingAndGlyphs"
text-anchor="middle" opacity="0" stroke-opacity="0">2</text>
<g class="stroked-text"><desc>2</desc>
<path d="M60.5972 50.5035
L60.6576 50.4430
" />
<path d="M60.6576 50.4430
L60.7786 50.3825
" />
<path d="M60.7786 50.3825
L61.0810 50.3825
" />
<path d="M61.0810 50.3825
L61.2019 50.4430
" />
<path d="M61.2019 50.4430
L61.2624 50.5035
" />
<path d="M61.2624 50.5035
L61.3229 50.6244
" />
<path d="M61.3229 50.6244
L61.3229 50.7454
" />
<path d="M61.3229 50.7454
L61.2624 50.9268
" />
<path d="M61.2624 50.9268
L60.5367 51.6525
" />
<path d="M60.5367 51.6525
L61.3229 51.6525
" />
</g></g>
<g style="fill:none; 
stroke:#840000; stroke-width:0.1524; stroke-opacity:1; 
stroke-linecap:round; stroke-linejoin:round;">
<path d="M62.2300 57.1500
L59.6900 57.1500
" />
</g>
<g style="fill:none; 
stroke:#006464; stroke-width:0.1524; stroke-opacity:1; 
stroke-linecap:round; stroke-linejoin:round;">
<text x="62.3570" y="57.7850"
textLength="1.7756" font-size="1.6933" lengthAdjust="spacingAndGlyphs"
text-anchor="start" opacity="0" stroke-opacity="0">+</text>
<g class="stroked-text"><desc>+</desc>
<path d="M62.7595 57.2457
L63.7272 57.2457
" />
<path d="M63.2433 57.7295
L63.2433 56.7619
" />
</g></g>
<g style="fill:none; 
stroke:#A90000; stroke-width:0.1524; stroke-opacity:1; 
stroke-linecap:round; stroke-linejoin:round;">
<text x="60.9600" y="56.8960"
textLength="1.4127" font-size="1.6933" lengthAdjust="spacingAndGlyphs"
text-anchor="middle" opacity="0" stroke-opacity="0">3</text>
<g class="stroked-text"><desc>3</desc>
<path d="M60.5367 55.4625
L61.3229 55.4625
" />
<path d="M61.3229 55.4625
L60.8995 55.9463
" />
<path d="M60.8995 55.9463
L61.0810 55.9463
" />
<path d="M61.0810 55.9463
L61.2019 56.0068
" />
<path d="M61.2019 56.0068
L61.2624 56.0673
" />
<path d="M61.2624 56.0673
L61.3229 56.1882
" />
<path d="M61.3229 56.1882
L61.3229 56.4906
" />
<path d="M61.3229 56.4906
L61.2624 56.6116
" />
<path d="M61.2624 56.6116
L61.2019 56.6721
" />
<path d="M61.2019 56.6721
L61.0810 56.7325
" />
<path d="M61.0810 56.7325
L60.7181 56.7325
" />
<path d="M60.7181 56.7325
L60.5972 56.6721
" />
<path d="M60.5972 56.6721
L60.5367 56.6116
" />
</g><path style="fill:none; 
stroke:#840000; stroke-width:0.1524; stroke-opacity:1; 
stroke-linecap:round; stroke-linejoin:round;fill:none"
d="M 52.0700,67.3100
52.0700,68.5800
53.3400,68.5800
52.0700,69.8500
50.8000,68.5800
52.0700,68.5800
" /> 
</g>
<g style="fill:none; 
stroke:#840000; stroke-width:0.1524; stroke-opacity:1; 
stroke-linecap:round; stroke-linejoin:round;">
<path d="M52.0700 67.3100
L52.0700 67.3100
" />
</g>
<g style="fill:none; 
stroke:#006464; stroke-width:0.1524; stroke-opacity:1; 
stroke-linecap:round; stroke-linejoin:round;">
<text x="52.0700" y="73.0250"
textLength="4.0737" font-size="1.6933" lengthAdjust="spacingAndGlyphs"
text-anchor="middle" opacity="0" stroke-opacity="0">GND</text>
<g class="stroked-text"><desc>GND</desc>
<path d="M51.1024 71.7600
L50.9814 71.6995
" />
<path d="M50.9814 71.6995
L50.8000 71.6995
" />
<path d="M50.8000 71.6995
L50.6186 71.7600
" />
<path d="M50.6186 71.7600
L50.4976 71.8810
" />
<path d="M50.4976 71.8810
L50.4371 72.0019
" />
<path d="M50.4371 72.0019
L50.3767 72.2438
" />
<path d="M50.3767 72.2438
L50.3767 72.4252
" />
<path d="M50.3767 72.4252
L50.4371 72.6671
" />
<path d="M50.4371 72.6671
L50.4976 72.7881
" />
<path d="M50.4976 72.7881
L50.6186 72.9091
" />
<path d="M50.6186 72.9091
L50.8000 72.9695
" />
<path d="M50.8000 72.9695
L50.9209 72.9695
" />
<path d="M50.9209 72.9695
L51.1024 72.9091
" />
<path d="M51.1024 72.9091
L51.1628 72.8486
" />
<path d="M51.1628 72.8486
L51.1628 72.4252
" />
<path d="M51.1628 72.4252
L50.9209 72.4252
" />
<path d="M51.7071 72.9695
L51.7071 71.6995
" />
<path d="M51.7071 71.6995
L52.4328 72.9695
" />
<path d="M52.4328 72.9695
L52.4328 71.6995
" />
<path d="M53.0376 72.9695
L53.0376 71.6995
" />
<path d="M53.0376 71.6995
L53.3400 71.6995
" />
<path d="M53.3400 71.6995
L53.5214 71.7600
" />
<path d="M53.5214 71.7600
L53.6424 71.8810
" />
<path d="M53.6424 71.8810
L53.7029 72.0019
" />
<path d="M53.7029 72.0019
L53.7633 72.2438
" />
<path d="M53.7633 72.2438
L53.7633 72.4252
" />
<path d="M53.7633 72.4252
L53.7029 72.6671
" />
<path d="M53.7029 72.6671
L53.6424 72.7881
" />
<path d="M53.6424 72.7881
L53.5214 72.9091
" />
<path d="M53.5214 72.9091
L53.3400 72.9695
" />
<path d="M53.3400 72.9695
L53.0376 72.9695
" />
</g><path style="fill:none; 
stroke:#840000; stroke-width:0.5080; stroke-opacity:1; 
stroke-linecap:round; stroke-linejoin:round;fill:none"
d="M 43.9420,50.0380
43.9420,54.1020
" /> 
<path style="fill:none; 
stroke:#840000; stroke-width:0.1524; stroke-opacity:1; 
stroke-linecap:round; stroke-linejoin:round;fill:none"
d="M 45.4660,50.2920
45.4660,51.3080
" /> 
<path style="fill:none; 
stroke:#840000; stroke-width:0.1524; stroke-opacity:1; 
stroke-linecap:round; stroke-linejoin:round;fill:none"
d="M 44.9580,50.8000
45.9740,50.8000
" /> 
</g>
<g style="fill:none; 
stroke:#840000; stroke-width:0.5080; stroke-opacity:1; 
stroke-linecap:round; stroke-linejoin:round;">
<path d="M41.9100 54.1020 A3.2528 3.2528 0.0 0 0 41.9100 50.0380" />
</g>
<g style="fill:none; 
stroke:#840000; stroke-width:0.1524; stroke-opacity:1; 
stroke-linecap:round; stroke-linejoin:round;">
<path d="M44.1960 52.0700
L46.9900 52.0700
" />
<path d="M42.6720 52.0700
L39.3700 52.0700
" />
</g>
<g style="fill:none; 
stroke:#006464; stroke-width:0.1524; stroke-opacity:1; 
stroke-linecap:round; stroke-linejoin:round;">
<text x="43.1800" y="57.2770"
textLength="2.6827" font-size="1.6933" lengthAdjust="spacingAndGlyphs"
text-anchor="middle" opacity="0" stroke-opacity="0">C3</text>
<g class="stroked-text"><desc>C3</desc>
<path d="M42.9683 57.1006
L42.9079 57.1611
" />
<path d="M42.9079 57.1611
L42.7264 57.2215
" />
<path d="M42.7264 57.2215
L42.6055 57.2215
" />
<path d="M42.6055 57.2215
L42.4241 57.1611
" />
<path d="M42.4241 57.1611
L42.3031 57.0401
" />
<path d="M42.3031 57.0401
L42.2426 56.9191
" />
<path d="M42.2426 56.9191
L42.1822 56.6772
" />
<path d="M42.1822 56.6772
L42.1822 56.4958
" />
<path d="M42.1822 56.4958
L42.2426 56.2539
" />
<path d="M42.2426 56.2539
L42.3031 56.1330
" />
<path d="M42.3031 56.1330
L42.4241 56.0120
" />
<path d="M42.4241 56.0120
L42.6055 55.9515
" />
<path d="M42.6055 55.9515
L42.7264 55.9515
" />
<path d="M42.7264 55.9515
L42.9079 56.0120
" />
<path d="M42.9079 56.0120
L42.9683 56.0725
" />
<path d="M43.3917 55.9515
L44.1779 55.9515
" />
<path d="M44.1779 55.9515
L43.7545 56.4353
" />
<path d="M43.7545 56.4353
L43.9360 56.4353
" />
<path d="M43.9360 56.4353
L44.0569 56.4958
" />
<path d="M44.0569 56.4958
L44.1174 56.5563
" />
<path d="M44.1174 56.5563
L44.1779 56.6772
" />
<path d="M44.1779 56.6772
L44.1779 56.9796
" />
<path d="M44.1779 56.9796
L44.1174 57.1006
" />
<path d="M44.1174 57.1006
L44.0569 57.1611
" />
<path d="M44.0569 57.1611
L43.9360 57.2215
" />
<path d="M43.9360 57.2215
L43.5731 57.2215
" />
<path d="M43.5731 57.2215
L43.4522 57.1611
" />
<path d="M43.4522 57.1611
L43.3917 57.1006
" />
</g><path style="fill:none; 
stroke:#840000; stroke-width:0.5080; stroke-opacity:1; 
stroke-linecap:round; stroke-linejoin:round;fill:none"
d="M 81.7880,56.6420
81.7880,52.5780
" /> 
<path style="fill:none; 
stroke:#840000; stroke-width:0.1524; stroke-opacity:1; 
stroke-linecap:round; stroke-linejoin:round;fill:none"
d="M 80.2640,56.3880
80.2640,55.3720
" /> 
<path style="fill:none; 
stroke:#840000; stroke-width:0.1524; stroke-opacity:1; 
stroke-linecap:round; stroke-linejoin:round;fill:none"
d="M 80.7720,55.8800
79.7560,55.8800
" /> 
</g>
<g style="fill:none; 
stroke:#840000; stroke-width:0.5080; stroke-opacity:1; 
stroke-linecap:round; stroke-linejoin:round;">
<path d="M83.8200 52.5780 A3.2528 3.2528 0.0 0 0 83.8200 56.6420" />
</g>
<g style="fill:none; 
stroke:#840000; stroke-width:0.1524; stroke-opacity:1; 
stroke-linecap:round; stroke-linejoin:round;">
<path d="M81.5340 54.6100
L78.7400 54.6100
" />
<path d="M83.0580 54.6100
L86.3600 54.6100
" />
</g>
<g style="fill:none; 
stroke:#006464; stroke-width:0.1524; stroke-opacity:1; 
stroke-linecap:round; stroke-linejoin:round;">
<text x="82.8039" y="59.8169"
textLength="2.6827" font-size="1.6933" lengthAdjust="spacingAndGlyphs"
text-anchor="middle" opacity="0" stroke-opacity="0">C1</text>
<g class="stroked-text"><desc>C1</desc>
<path d="M82.5922 59.6405
L82.5318 59.7010
" />
<path d="M82.5318 59.7010
L82.3503 59.7614
" />
<path d="M82.3503 59.7614
L82.2294 59.7614
" />
<path d="M82.2294 59.7614
L82.0480 59.7010
" />
<path d="M82.0480 59.7010
L81.9270 59.5800
" />
<path d="M81.9270 59.5800
L81.8665 59.4590
" />
<path d="M81.8665 59.4590
L81.8061 59.2171
" />
<path d="M81.8061 59.2171
L81.8061 59.0357
" />
<path d="M81.8061 59.0357
L81.8665 58.7938
" />
<path d="M81.8665 58.7938
L81.9270 58.6729
" />
<path d="M81.9270 58.6729
L82.0480 58.5519
" />
<path d="M82.0480 58.5519
L82.2294 58.4914
" />
<path d="M82.2294 58.4914
L82.3503 58.4914
" />
<path d="M82.3503 58.4914
L82.5318 58.5519
" />
<path d="M82.5318 58.5519
L82.5922 58.6124
" />
<path d="M83.8018 59.7614
L83.0761 59.7614
" />
<path d="M83.4389 59.7614
L83.4389 58.4914
" />
<path d="M83.4389 58.4914
L83.3180 58.6729
" />
<path d="M83.3180 58.6729
L83.1970 58.7938
" />
<path d="M83.1970 58.7938
L83.0761 58.8543
" />
</g><path style="fill:none; 
stroke:#840000; stroke-width:0.1524; stroke-opacity:1; 
stroke-linecap:round; stroke-linejoin:round;fill:none"
d="M 52.0700,57.1500
52.0700,58.4200
" /> 
</g>
<g style="fill:none; 
stroke:#840000; stroke-width:0.2540; stroke-opacity:1; 
stroke-linecap:round; stroke-linejoin:round;">
<path d="M52.0700 60.3249 A0.6350 0.6350 0.0 0 0 53.3400 60.3249" />
<path d="M52.0700 60.3250 A0.6350 0.6350 0.0 0 0 50.8000 60.3250" />
<circle cx="52.0700" cy="60.3250" r="1.9050" /> 
</g>
<g style="fill:none; 
stroke:#840000; stroke-width:0.1524; stroke-opacity:1; 
stroke-linecap:round; stroke-linejoin:round;">
<path d="M52.0700 57.1500
L52.0700 57.1500
" />
<path style="fill:none; 
stroke:#840000; stroke-width:0.1524; stroke-opacity:1; 
stroke-linecap:round; stroke-linejoin:round;fill:none"
d="M 54.3560,52.0700
54.6100,52.0700
" /> 
<path style="fill:none; 
stroke:#840000; stroke-width:0.1524; stroke-opacity:1; 
stroke-linecap:round; stroke-linejoin:round;fill:none"
d="M 49.7840,52.0700
49.5300,52.0700
" /> 
<path style="fill:none; 
stroke:#840000; stroke-width:0.1524; stroke-opacity:1; 
stroke-linecap:round; stroke-linejoin:round;fill:none"
d="M 52.8320,52.0700
53.2130,51.0540
53.5940,52.0700
53.9750,53.0860
54.3560,52.0700
" /> 
<path style="fill:none; 
stroke:#840000; stroke-width:0.1524; stroke-opacity:1; 
stroke-linecap:round; stroke-linejoin:round;fill:none"
d="M 51.3080,52.0700
51.6890,51.0540
52.0700,52.0700
52.4510,53.0860
52.8320,52.0700
" /> 
<path style="fill:none; 
stroke:#840000; stroke-width:0.1524; stroke-opacity:1; 
stroke-linecap:round; stroke-linejoin:round;fill:none"
d="M 49.7840,52.0700
50.1650,51.0540
50.5460,52.0700
50.9270,53.0860
51.3080,52.0700
" /> 
<path d="M49.5300 52.0700
L48.2600 52.0700
" />
<path d="M54.6100 52.0700
L55.8800 52.0700
" />
</g>
<g style="fill:none; 
stroke:#006464; stroke-width:0.1524; stroke-opacity:1; 
stroke-linecap:round; stroke-linejoin:round;">
<text x="52.2430" y="49.1489"
textLength="2.6827" font-size="1.6933" lengthAdjust="spacingAndGlyphs"
text-anchor="middle" opacity="0" stroke-opacity="0">R1</text>
<g class="stroked-text"><desc>R1</desc>
<path d="M52.0313 49.0934
L51.6080 48.4887
" />
<path d="M51.3056 49.0934
L51.3056 47.8234
" />
<path d="M51.3056 47.8234
L51.7894 47.8234
" />
<path d="M51.7894 47.8234
L51.9104 47.8839
" />
<path d="M51.9104 47.8839
L51.9709 47.9444
" />
<path d="M51.9709 47.9444
L52.0313 48.0653
" />
<path d="M52.0313 48.0653
L52.0313 48.2468
" />
<path d="M52.0313 48.2468
L51.9709 48.3677
" />
<path d="M51.9709 48.3677
L51.9104 48.4282
" />
<path d="M51.9104 48.4282
L51.7894 48.4887
" />
<path d="M51.7894 48.4887
L51.3056 48.4887
" />
<path d="M53.2409 49.0934
L52.5152 49.0934
" />
<path d="M52.8780 49.0934
L52.8780 47.8234
" />
<path d="M52.8780 47.8234
L52.7571 48.0049
" />
<path d="M52.7571 48.0049
L52.6361 48.1258
" />
<path d="M52.6361 48.1258
L52.5152 48.1863
" />
</g><path style="fill:none; 
stroke:#840000; stroke-width:0.1524; stroke-opacity:1; 
stroke-linecap:round; stroke-linejoin:round;fill:none"
d="M 90.1700,63.2460
90.1700,63.5000
" /> 
<path style="fill:none; 
stroke:#840000; stroke-width:0.1524; stroke-opacity:1; 
stroke-linecap:round; stroke-linejoin:round;fill:none"
d="M 90.1700,58.6740
90.1700,58.4200
" /> 
<path style="fill:none; 
stroke:#840000; stroke-width:0.1524; stroke-opacity:1; 
stroke-linecap:round; stroke-linejoin:round;fill:none"
d="M 90.1700,61.7220
91.1860,62.1030
90.1700,62.4840
89.1540,62.8650
90.1700,63.2460
" /> 
<path style="fill:none; 
stroke:#840000; stroke-width:0.1524; stroke-opacity:1; 
stroke-linecap:round; stroke-linejoin:round;fill:none"
d="M 90.1700,60.1980
91.1860,60.5790
90.1700,60.9600
89.1540,61.3410
90.1700,61.7220
" /> 
<path style="fill:none; 
stroke:#840000; stroke-width:0.1524; stroke-opacity:1; 
stroke-linecap:round; stroke-linejoin:round;fill:none"
d="M 90.1700,58.6740
91.1860,59.0550
90.1700,59.4360
89.1540,59.8170
90.1700,60.1980
" /> 
</g>
<g style="fill:none; 
stroke:#840000; stroke-width:0.1524; stroke-opacity:1; 
stroke-linecap:round; stroke-linejoin:round;">
<path d="M90.1700 58.4200
L90.1700 57.1500
" />
<path d="M90.1700 63.5000
L90.1700 64.7700
" />
</g>
<g style="fill:none; 
stroke:#006464; stroke-width:0.1524; stroke-opacity:1; 
stroke-linecap:round; stroke-linejoin:round;">
<text x="93.7162" y="61.5950"
textLength="2.5013" font-size="1.6933" lengthAdjust="spacingAndGlyphs"
text-anchor="middle" opacity="0" stroke-opacity="0">RL</text>
<g class="stroked-text"><desc>RL</desc>
<path d="M93.5952 61.5395
L93.1719 60.9348
" />
<path d="M92.8695 61.5395
L92.8695 60.2695
" />
<path d="M92.8695 60.2695
L93.3533 60.2695
" />
<path d="M93.3533 60.2695
L93.4743 60.3300
" />
<path d="M93.4743 60.3300
L93.5348 60.3905
" />
<path d="M93.5348 60.3905
L93.5952 60.5114
" />
<path d="M93.5952 60.5114
L93.5952 60.6929
" />
<path d="M93.5952 60.6929
L93.5348 60.8138
" />
<path d="M93.5348 60.8138
L93.4743 60.8743
" />
<path d="M93.4743 60.8743
L93.3533 60.9348
" />
<path d="M93.3533 60.9348
L92.8695 60.9348
" />
<path d="M94.7443 61.5395
L94.1395 61.5395
" />
<path d="M94.1395 61.5395
L94.1395 60.2695
" />
</g><path style="fill:none; 
stroke:#840000; stroke-width:0.1524; stroke-opacity:1; 
stroke-linecap:round; stroke-linejoin:round;fill:none"
d="M 90.1700,67.3100
90.1700,68.5800
91.4400,68.5800
90.1700,69.8500
88.9000,68.5800
90.1700,68.5800
" /> 
</g>
<g style="fill:none; 
stroke:#840000; stroke-width:0.1524; stroke-opacity:1; 
stroke-linecap:round; stroke-linejoin:round;">
<path d="M90.1700 67.3100
L90.1700 67.3100
" />
</g>
<g style="fill:none; 
stroke:#006464; stroke-width:0.1524; stroke-opacity:1; 
stroke-linecap:round; stroke-linejoin:round;">
<text x="90.1700" y="73.0250"
textLength="4.0737" font-size="1.6933" lengthAdjust="spacingAndGlyphs"
text-anchor="middle" opacity="0" stroke-opacity="0">GND</text>
<g class="stroked-text"><desc>GND</desc>
<path d="M89.2024 71.7600
L89.0814 71.6995
" />
<path d="M89.0814 71.6995
L88.9000 71.6995
" />
<path d="M88.9000 71.6995
L88.7186 71.7600
" />
<path d="M88.7186 71.7600
L88.5976 71.8810
" />
<path d="M88.5976 71.8810
L88.5371 72.0019
" />
<path d="M88.5371 72.0019
L88.4767 72.2438
" />
<path d="M88.4767 72.2438
L88.4767 72.4252
" />
<path d="M88.4767 72.4252
L88.5371 72.6671
" />
<path d="M88.5371 72.6671
L88.5976 72.7881
" />
<path d="M88.5976 72.7881
L88.7186 72.9091
" />
<path d="M88.7186 72.9091
L88.9000 72.9695
" />
<path d="M88.9000 72.9695
L89.0209 72.9695
" />
<path d="M89.0209 72.9695
L89.2024 72.9091
" />
<path d="M89.2024 72.9091
L89.2628 72.8486
" />
<path d="M89.2628 72.8486
L89.2628 72.4252
" />
<path d="M89.2628 72.4252
L89.0209 72.4252
" />
<path d="M89.8071 72.9695
L89.8071 71.6995
" />
<path d="M89.8071 71.6995
L90.5328 72.9695
" />
<path d="M90.5328 72.9695
L90.5328 71.6995
" />
<path d="M91.1376 72.9695
L91.1376 71.6995
" />
<path d="M91.1376 71.6995
L91.4400 71.6995
" />
<path d="M91.4400 71.6995
L91.6214 71.7600
" />
<path d="M91.6214 71.7600
L91.7424 71.8810
" />
<path d="M91.7424 71.8810
L91.8029 72.0019
" />
<path d="M91.8029 72.0019
L91.8633 72.2438
" />
<path d="M91.8633 72.2438
L91.8633 72.4252
" />
<path d="M91.8633 72.4252
L91.8029 72.6671
" />
<path d="M91.8029 72.6671
L91.7424 72.7881
" />
<path d="M91.7424 72.7881
L91.6214 72.9091
" />
<path d="M91.6214 72.9091
L91.4400 72.9695
" />
<path d="M91.4400 72.9695
L91.1376 72.9695
" />
</g><path style="fill:none; 
stroke:#840000; stroke-width:0.1524; stroke-opacity:1; 
stroke-linecap:round; stroke-linejoin:round;fill:none"
d="M 70.8660,41.9100
71.1200,41.9100
" /> 
<path style="fill:none; 
stroke:#840000; stroke-width:0.1524; stroke-opacity:1; 
stroke-linecap:round; stroke-linejoin:round;fill:none"
d="M 66.2940,41.9100
66.0400,41.9100
" /> 
<path style="fill:none; 
stroke:#840000; stroke-width:0.1524; stroke-opacity:1; 
stroke-linecap:round; stroke-linejoin:round;fill:none"
d="M 69.3420,41.9100
69.7230,40.8940
70.1040,41.9100
70.4850,42.9260
70.8660,41.9100
" /> 
<path style="fill:none; 
stroke:#840000; stroke-width:0.1524; stroke-opacity:1; 
stroke-linecap:round; stroke-linejoin:round;fill:none"
d="M 67.8180,41.9100
68.1990,40.8940
68.5800,41.9100
68.9610,42.9260
69.3420,41.9100
" /> 
<path style="fill:none; 
stroke:#840000; stroke-width:0.1524; stroke-opacity:1; 
stroke-linecap:round; stroke-linejoin:round;fill:none"
d="M 66.2940,41.9100
66.6750,40.8940
67.0560,41.9100
67.4370,42.9260
67.8180,41.9100
" /> 
</g>
<g style="fill:none; 
stroke:#840000; stroke-width:0.1524; stroke-opacity:1; 
stroke-linecap:round; stroke-linejoin:round;">
<path d="M66.0400 41.9100
L64.7700 41.9100
" />
<path d="M71.1200 41.9100
L72.3900 41.9100
" />
</g>
<g style="fill:none; 
stroke:#006464; stroke-width:0.1524; stroke-opacity:1; 
stroke-linecap:round; stroke-linejoin:round;">
<text x="68.7530" y="39.7509"
textLength="2.6827" font-size="1.6933" lengthAdjust="spacingAndGlyphs"
text-anchor="middle" opacity="0" stroke-opacity="0">R2</text>
<g class="stroked-text"><desc>R2</desc>
<path d="M68.5413 39.6954
L68.1180 39.0907
" />
<path d="M67.8156 39.6954
L67.8156 38.4254
" />
<path d="M67.8156 38.4254
L68.2994 38.4254
" />
<path d="M68.2994 38.4254
L68.4204 38.4859
" />
<path d="M68.4204 38.4859
L68.4809 38.5464
" />
<path d="M68.4809 38.5464
L68.5413 38.6673
" />
<path d="M68.5413 38.6673
L68.5413 38.8488
" />
<path d="M68.5413 38.8488
L68.4809 38.9697
" />
<path d="M68.4809 38.9697
L68.4204 39.0302
" />
<path d="M68.4204 39.0302
L68.2994 39.0907
" />
<path d="M68.2994 39.0907
L67.8156 39.0907
" />
<path d="M69.0252 38.5464
L69.0856 38.4859
" />
<path d="M69.0856 38.4859
L69.2066 38.4254
" />
<path d="M69.2066 38.4254
L69.5090 38.4254
" />
<path d="M69.5090 38.4254
L69.6299 38.4859
" />
<path d="M69.6299 38.4859
L69.6904 38.5464
" />
<path d="M69.6904 38.5464
L69.7509 38.6673
" />
<path d="M69.7509 38.6673
L69.7509 38.7883
" />
<path d="M69.7509 38.7883
L69.6904 38.9697
" />
<path d="M69.6904 38.9697
L68.9647 39.6954
" />
<path d="M68.9647 39.6954
L69.7509 39.6954
" />
</g></g>
<g style="fill:none; 
stroke:#725600; stroke-width:0.1524; stroke-opacity:1; 
stroke-linecap:round; stroke-linejoin:round;">
<g transform="rotate(-90.000000 77.4700 56.0705)">
<text x="77.4700" y="56.7055"
textLength="2.5013" font-size="1.6933" lengthAdjust="spacingAndGlyphs"
text-anchor="end" opacity="0" stroke-opacity="0">V2</text>
</g>
<g class="stroked-text"><desc>V2</desc>
<path d="M76.7795 58.3478
L78.0495 57.9245
" />
<path d="M78.0495 57.9245
L76.7795 57.5011
" />
<path d="M76.9005 57.1382
L76.8400 57.0778
" />
<path d="M76.8400 57.0778
L76.7795 56.9568
" />
<path d="M76.7795 56.9568
L76.7795 56.6544
" />
<path d="M76.7795 56.6544
L76.8400 56.5335
" />
<path d="M76.8400 56.5335
L76.9005 56.4730
" />
<path d="M76.9005 56.4730
L77.0214 56.4125
" />
<path d="M77.0214 56.4125
L77.1424 56.4125
" />
<path d="M77.1424 56.4125
L77.3238 56.4730
" />
<path d="M77.3238 56.4730
L78.0495 57.1987
" />
<path d="M78.0495 57.1987
L78.0495 56.4125
" />
</g><path style="fill:none; 
stroke:#725600; stroke-width:0.1524; stroke-opacity:1; 
stroke-linecap:round; stroke-linejoin:round;fill:none"
d="M 77.4700,54.6100
78.1050,55.2450
78.1050,55.8800
76.8350,55.8800
76.8350,55.2450
Z" /> 
</g>
<g style="fill:none; 
stroke:#840000; stroke-width:0.1524; stroke-opacity:1; 
stroke-linecap:round; stroke-linejoin:round;">
<g transform="rotate(-90.000000 57.2408 58.5788)">
<text x="57.2408" y="59.2138"
textLength="3.2271" font-size="1.6933" lengthAdjust="spacingAndGlyphs"
text-anchor="end" opacity="0" stroke-opacity="0">VIN</text>
</g>
<g class="stroked-text"><desc>VIN</desc>
<path d="M56.5503 61.5819
L57.8203 61.1586
" />
<path d="M57.8203 61.1586
L56.5503 60.7352
" />
<path d="M57.8203 60.3119
L56.5503 60.3119
" />
<path d="M57.8203 59.7071
L56.5503 59.7071
" />
<path d="M56.5503 59.7071
L57.8203 58.9814
" />
<path d="M57.8203 58.9814
L56.5503 58.9814
" />
</g><path style="fill:none; 
stroke:#840000; stroke-width:0.1524; stroke-opacity:1; 
stroke-linecap:round; stroke-linejoin:round;fill:none"
d="M 57.1500,57.1500
55.8796,58.2613
55.8796,62.6193
57.1500,62.6193
58.4204,62.6193
58.4204,58.2613
Z" /> 
</g>
<g style="fill:none; 
stroke:#840000; stroke-width:0.1524; stroke-opacity:1; 
stroke-linecap:round; stroke-linejoin:round;">
<text x="91.5988" y="55.3358"
textLength="4.9204" font-size="1.6933" lengthAdjust="spacingAndGlyphs"
text-anchor="start" opacity="0" stroke-opacity="0">VOUT</text>
<g class="stroked-text"><desc>VOUT</desc>
<path d="M91.8199 54.0103
L92.2432 55.2803
" />
<path d="M92.2432 55.2803
L92.6666 54.0103
" />
<path d="M93.3318 54.0103
L93.5737 54.0103
" />
<path d="M93.5737 54.0103
L93.6947 54.0708
" />
<path d="M93.6947 54.0708
L93.8156 54.1918
" />
<path d="M93.8156 54.1918
L93.8761 54.4337
" />
<path d="M93.8761 54.4337
L93.8761 54.8570
" />
<path d="M93.8761 54.8570
L93.8156 55.0989
" />
<path d="M93.8156 55.0989
L93.6947 55.2199
" />
<path d="M93.6947 55.2199
L93.5737 55.2803
" />
<path d="M93.5737 55.2803
L93.3318 55.2803
" />
<path d="M93.3318 55.2803
L93.2109 55.2199
" />
<path d="M93.2109 55.2199
L93.0899 55.0989
" />
<path d="M93.0899 55.0989
L93.0295 54.8570
" />
<path d="M93.0295 54.8570
L93.0295 54.4337
" />
<path d="M93.0295 54.4337
L93.0899 54.1918
" />
<path d="M93.0899 54.1918
L93.2109 54.0708
" />
<path d="M93.2109 54.0708
L93.3318 54.0103
" />
<path d="M94.4204 54.0103
L94.4204 55.0384
" />
<path d="M94.4204 55.0384
L94.4809 55.1594
" />
<path d="M94.4809 55.1594
L94.5414 55.2199
" />
<path d="M94.5414 55.2199
L94.6623 55.2803
" />
<path d="M94.6623 55.2803
L94.9042 55.2803
" />
<path d="M94.9042 55.2803
L95.0252 55.2199
" />
<path d="M95.0252 55.2199
L95.0857 55.1594
" />
<path d="M95.0857 55.1594
L95.1461 55.0384
" />
<path d="M95.1461 55.0384
L95.1461 54.0103
" />
<path d="M95.5695 54.0103
L96.2952 54.0103
" />
<path d="M95.9324 55.2803
L95.9324 54.0103
" />
</g><path style="fill:none; 
stroke:#840000; stroke-width:0.1524; stroke-opacity:1; 
stroke-linecap:round; stroke-linejoin:round;fill:none"
d="M 90.1700,54.6100
91.2813,55.8804
97.3326,55.8804
97.3326,54.6100
97.3326,53.3396
91.2813,53.3396
Z" /> 
</g>
<g style="fill:none; 
stroke:#0000C2; stroke-width:0.1524; stroke-opacity:1; 
stroke-linecap:round; stroke-linejoin:round;">
<text x="86.8680" y="47.6290"
textLength="8.8511" font-size="1.6933" lengthAdjust="spacingAndGlyphs"
text-anchor="middle" opacity="0" stroke-opacity="0">Bloque 2</text>
<g class="stroked-text"><desc>Bloque 2</desc>
<path d="M83.2698 46.9083
L83.4512 46.9688
" />
<path d="M83.4512 46.9688
L83.5117 47.0292
" />
<path d="M83.5117 47.0292
L83.5721 47.1502
" />
<path d="M83.5721 47.1502
L83.5721 47.3316
" />
<path d="M83.5721 47.3316
L83.5117 47.4526
" />
<path d="M83.5117 47.4526
L83.4512 47.5131
" />
<path d="M83.4512 47.5131
L83.3302 47.5735
" />
<path d="M83.3302 47.5735
L82.8464 47.5735
" />
<path d="M82.8464 47.5735
L82.8464 46.3035
" />
<path d="M82.8464 46.3035
L83.2698 46.3035
" />
<path d="M83.2698 46.3035
L83.3907 46.3640
" />
<path d="M83.3907 46.3640
L83.4512 46.4245
" />
<path d="M83.4512 46.4245
L83.5117 46.5454
" />
<path d="M83.5117 46.5454
L83.5117 46.6664
" />
<path d="M83.5117 46.6664
L83.4512 46.7873
" />
<path d="M83.4512 46.7873
L83.3907 46.8478
" />
<path d="M83.3907 46.8478
L83.2698 46.9083
" />
<path d="M83.2698 46.9083
L82.8464 46.9083
" />
<path d="M84.2979 47.5735
L84.1769 47.5131
" />
<path d="M84.1769 47.5131
L84.1164 47.3921
" />
<path d="M84.1164 47.3921
L84.1164 46.3035
" />
<path d="M84.9631 47.5735
L84.8421 47.5131
" />
<path d="M84.8421 47.5131
L84.7816 47.4526
" />
<path d="M84.7816 47.4526
L84.7212 47.3316
" />
<path d="M84.7212 47.3316
L84.7212 46.9688
" />
<path d="M84.7212 46.9688
L84.7816 46.8478
" />
<path d="M84.7816 46.8478
L84.8421 46.7873
" />
<path d="M84.8421 46.7873
L84.9631 46.7269
" />
<path d="M84.9631 46.7269
L85.1445 46.7269
" />
<path d="M85.1445 46.7269
L85.2654 46.7873
" />
<path d="M85.2654 46.7873
L85.3259 46.8478
" />
<path d="M85.3259 46.8478
L85.3864 46.9688
" />
<path d="M85.3864 46.9688
L85.3864 47.3316
" />
<path d="M85.3864 47.3316
L85.3259 47.4526
" />
<path d="M85.3259 47.4526
L85.2654 47.5131
" />
<path d="M85.2654 47.5131
L85.1445 47.5735
" />
<path d="M85.1445 47.5735
L84.9631 47.5735
" />
<path d="M86.4749 46.7269
L86.4749 47.9969
" />
<path d="M86.4749 47.5131
L86.3540 47.5735
" />
<path d="M86.3540 47.5735
L86.1121 47.5735
" />
<path d="M86.1121 47.5735
L85.9911 47.5131
" />
<path d="M85.9911 47.5131
L85.9306 47.4526
" />
<path d="M85.9306 47.4526
L85.8702 47.3316
" />
<path d="M85.8702 47.3316
L85.8702 46.9688
" />
<path d="M85.8702 46.9688
L85.9306 46.8478
" />
<path d="M85.9306 46.8478
L85.9911 46.7873
" />
<path d="M85.9911 46.7873
L86.1121 46.7269
" />
<path d="M86.1121 46.7269
L86.3540 46.7269
" />
<path d="M86.3540 46.7269
L86.4749 46.7873
" />
<path d="M87.6239 46.7269
L87.6239 47.5735
" />
<path d="M87.0796 46.7269
L87.0796 47.3921
" />
<path d="M87.0796 47.3921
L87.1401 47.5131
" />
<path d="M87.1401 47.5131
L87.2611 47.5735
" />
<path d="M87.2611 47.5735
L87.4425 47.5735
" />
<path d="M87.4425 47.5735
L87.5634 47.5131
" />
<path d="M87.5634 47.5131
L87.6239 47.4526
" />
<path d="M88.7124 47.5131
L88.5915 47.5735
" />
<path d="M88.5915 47.5735
L88.3496 47.5735
" />
<path d="M88.3496 47.5735
L88.2286 47.5131
" />
<path d="M88.2286 47.5131
L88.1682 47.3921
" />
<path d="M88.1682 47.3921
L88.1682 46.9083
" />
<path d="M88.1682 46.9083
L88.2286 46.7873
" />
<path d="M88.2286 46.7873
L88.3496 46.7269
" />
<path d="M88.3496 46.7269
L88.5915 46.7269
" />
<path d="M88.5915 46.7269
L88.7124 46.7873
" />
<path d="M88.7124 46.7873
L88.7729 46.9083
" />
<path d="M88.7729 46.9083
L88.7729 47.0292
" />
<path d="M88.7729 47.0292
L88.1682 47.1502
" />
<path d="M90.2244 46.4245
L90.2848 46.3640
" />
<path d="M90.2848 46.3640
L90.4058 46.3035
" />
<path d="M90.4058 46.3035
L90.7082 46.3035
" />
<path d="M90.7082 46.3035
L90.8291 46.3640
" />
<path d="M90.8291 46.3640
L90.8896 46.4245
" />
<path d="M90.8896 46.4245
L90.9501 46.5454
" />
<path d="M90.9501 46.5454
L90.9501 46.6664
" />
<path d="M90.9501 46.6664
L90.8896 46.8478
" />
<path d="M90.8896 46.8478
L90.1639 47.5735
" />
<path d="M90.1639 47.5735
L90.9501 47.5735
" />
</g></g>
<g style="fill:none; 
stroke:#FF0300; stroke-width:0.1524; stroke-opacity:1; 
stroke-linecap:round; stroke-linejoin:round;">
<text x="55.3720" y="37.2150"
textLength="8.8511" font-size="1.6933" lengthAdjust="spacingAndGlyphs"
text-anchor="middle" opacity="0" stroke-opacity="0">Bloque 1</text>
<g class="stroked-text"><desc>Bloque 1</desc>
<path d="M51.7738 36.4943
L51.9552 36.5548
" />
<path d="M51.9552 36.5548
L52.0157 36.6152
" />
<path d="M52.0157 36.6152
L52.0761 36.7362
" />
<path d="M52.0761 36.7362
L52.0761 36.9176
" />
<path d="M52.0761 36.9176
L52.0157 37.0386
" />
<path d="M52.0157 37.0386
L51.9552 37.0991
" />
<path d="M51.9552 37.0991
L51.8342 37.1595
" />
<path d="M51.8342 37.1595
L51.3504 37.1595
" />
<path d="M51.3504 37.1595
L51.3504 35.8895
" />
<path d="M51.3504 35.8895
L51.7738 35.8895
" />
<path d="M51.7738 35.8895
L51.8947 35.9500
" />
<path d="M51.8947 35.9500
L51.9552 36.0105
" />
<path d="M51.9552 36.0105
L52.0157 36.1314
" />
<path d="M52.0157 36.1314
L52.0157 36.2524
" />
<path d="M52.0157 36.2524
L51.9552 36.3733
" />
<path d="M51.9552 36.3733
L51.8947 36.4338
" />
<path d="M51.8947 36.4338
L51.7738 36.4943
" />
<path d="M51.7738 36.4943
L51.3504 36.4943
" />
<path d="M52.8019 37.1595
L52.6809 37.0991
" />
<path d="M52.6809 37.0991
L52.6204 36.9781
" />
<path d="M52.6204 36.9781
L52.6204 35.8895
" />
<path d="M53.4671 37.1595
L53.3461 37.0991
" />
<path d="M53.3461 37.0991
L53.2856 37.0386
" />
<path d="M53.2856 37.0386
L53.2252 36.9176
" />
<path d="M53.2252 36.9176
L53.2252 36.5548
" />
<path d="M53.2252 36.5548
L53.2856 36.4338
" />
<path d="M53.2856 36.4338
L53.3461 36.3733
" />
<path d="M53.3461 36.3733
L53.4671 36.3129
" />
<path d="M53.4671 36.3129
L53.6485 36.3129
" />
<path d="M53.6485 36.3129
L53.7694 36.3733
" />
<path d="M53.7694 36.3733
L53.8299 36.4338
" />
<path d="M53.8299 36.4338
L53.8904 36.5548
" />
<path d="M53.8904 36.5548
L53.8904 36.9176
" />
<path d="M53.8904 36.9176
L53.8299 37.0386
" />
<path d="M53.8299 37.0386
L53.7694 37.0991
" />
<path d="M53.7694 37.0991
L53.6485 37.1595
" />
<path d="M53.6485 37.1595
L53.4671 37.1595
" />
<path d="M54.9789 36.3129
L54.9789 37.5829
" />
<path d="M54.9789 37.0991
L54.8580 37.1595
" />
<path d="M54.8580 37.1595
L54.6161 37.1595
" />
<path d="M54.6161 37.1595
L54.4951 37.0991
" />
<path d="M54.4951 37.0991
L54.4346 37.0386
" />
<path d="M54.4346 37.0386
L54.3742 36.9176
" />
<path d="M54.3742 36.9176
L54.3742 36.5548
" />
<path d="M54.3742 36.5548
L54.4346 36.4338
" />
<path d="M54.4346 36.4338
L54.4951 36.3733
" />
<path d="M54.4951 36.3733
L54.6161 36.3129
" />
<path d="M54.6161 36.3129
L54.8580 36.3129
" />
<path d="M54.8580 36.3129
L54.9789 36.3733
" />
<path d="M56.1279 36.3129
L56.1279 37.1595
" />
<path d="M55.5836 36.3129
L55.5836 36.9781
" />
<path d="M55.5836 36.9781
L55.6441 37.0991
" />
<path d="M55.6441 37.0991
L55.7651 37.1595
" />
<path d="M55.7651 37.1595
L55.9465 37.1595
" />
<path d="M55.9465 37.1595
L56.0674 37.0991
" />
<path d="M56.0674 37.0991
L56.1279 37.0386
" />
<path d="M57.2164 37.0991
L57.0955 37.1595
" />
<path d="M57.0955 37.1595
L56.8536 37.1595
" />
<path d="M56.8536 37.1595
L56.7326 37.0991
" />
<path d="M56.7326 37.0991
L56.6722 36.9781
" />
<path d="M56.6722 36.9781
L56.6722 36.4943
" />
<path d="M56.6722 36.4943
L56.7326 36.3733
" />
<path d="M56.7326 36.3733
L56.8536 36.3129
" />
<path d="M56.8536 36.3129
L57.0955 36.3129
" />
<path d="M57.0955 36.3129
L57.2164 36.3733
" />
<path d="M57.2164 36.3733
L57.2769 36.4943
" />
<path d="M57.2769 36.4943
L57.2769 36.6152
" />
<path d="M57.2769 36.6152
L56.6722 36.7362
" />
<path d="M59.4541 37.1595
L58.7284 37.1595
" />
<path d="M59.0912 37.1595
L59.0912 35.8895
" />
<path d="M59.0912 35.8895
L58.9703 36.0710
" />
<path d="M58.9703 36.0710
L58.8493 36.1919
" />
<path d="M58.8493 36.1919
L58.7284 36.2524
" />
</g></g>
<g style="fill:none; 
stroke:#0000C2; stroke-width:0.1524; stroke-opacity:1; 
stroke-linecap:round; stroke-linejoin:round;">
<rect x="75.692000" y="48.260000" width="21.336000" height="26.162000" rx="0.000000" />
</g>
<g style="fill:none; 
stroke:#FF0915; stroke-width:0.1524; stroke-opacity:1; 
stroke-linecap:round; stroke-linejoin:round;">
<rect x="34.036000" y="37.592000" width="44.704000" height="36.322000" rx="0.000000" />
</g>
<g style="fill:none; 
stroke:#009600; stroke-width:0.1524; stroke-opacity:1; 
stroke-linecap:round; stroke-linejoin:round;">
<path d="M90.1700 54.6100
L90.1700 57.1500
" />
<path d="M77.4700 54.6100
L78.7400 54.6100
" />
<path d="M77.4700 41.9100
L77.4700 54.6100
" />
<path d="M74.9300 54.6100
L77.4700 54.6100
" />
<path d="M72.3900 41.9100
L77.4700 41.9100
" />
<path d="M52.0700 62.2300
L52.0700 67.3100
" />
<path d="M58.4200 52.0700
L59.6900 52.0700
" />
<path d="M58.4200 41.9100
L58.4200 52.0700
" />
<path d="M64.7700 41.9100
L58.4200 41.9100
" />
<path d="M55.8800 52.0700
L58.4200 52.0700
" />
<path d="M36.8300 67.3100
L36.8300 52.0700
" />
<path d="M36.8300 52.0700
L39.3700 52.0700
" />
<path d="M52.0700 57.1500
L59.6900 57.1500
" />
<path d="M90.1700 64.7700
L90.1700 67.3100
" />
<path d="M46.9900 52.0700
L48.2600 52.0700
" />
<path d="M86.3600 54.6100
L90.1700 54.6100
" />
</g>
<g style="fill:#009600; fill-opacity:1.0000; 
stroke:#009600; stroke-width:0.1524; stroke-opacity:1; 
stroke-linecap:round; stroke-linejoin:round;">
<circle cx="77.4700" cy="54.6100" r="0.4572" /> 
<circle cx="58.4200" cy="52.0700" r="0.4572" /> 
</g> 
</svg>
